M48
; DRILL file {KiCad (5.1.4)-1} date 01/11/2019 11:29:37
; FORMAT={-:-/ absolute / inch / decimal}
; #@! TF.CreationDate,2019-11-01T11:29:37+01:00
; #@! TF.GenerationSoftware,Kicad,Pcbnew,(5.1.4)-1
; #@! TF.FileFunction,Plated,1,2,PTH
FMAT,2
INCH
T1C0.0157
T2C0.0394
%
G90
G05
T1
X4.017Y-3.402
X4.088Y-3.484
X4.2492Y-4.4652
X4.26Y-4.335
X4.377Y-4.172
X4.511Y-4.341
X4.564Y-3.933
X4.569Y-3.807
X4.573Y-4.165
X4.5817Y-4.0969
X4.5911Y-4.4619
X4.615Y-3.44
X4.645Y-4.5727
X4.67Y-4.266
X4.6757Y-3.2145
X4.684Y-3.994
X4.6905Y-3.43
X4.6939Y-3.3447
X4.702Y-3.665
X4.7283Y-3.937
X4.7306Y-3.3306
X4.7425Y-4.13
X4.7425Y-4.192
X4.744Y-4.058
X4.75Y-3.998
X4.752Y-4.54
X4.803Y-4.58
X4.809Y-4.101
X4.8223Y-4.055
X4.8235Y-4.3177
X4.866Y-3.668
X4.887Y-3.776
X4.891Y-4.276
X4.899Y-3.565
X4.9Y-3.995
X4.902Y-4.147
X4.9062Y-4.5485
X4.909Y-4.21
X4.9294Y-3.3906
X4.94Y-3.305
X4.9421Y-3.9511
X4.9633Y-4.27
X4.9633Y-4.378
X4.9633Y-4.428
X4.9987Y-3.3793
X5.018Y-4.327
X5.028Y-4.48
X5.0371Y-4.26
X5.0748Y-4.4242
X5.117Y-3.828
X5.1248Y-4.4798
X5.152Y-4.213
X5.156Y-4.44
X5.174Y-3.5295
X5.187Y-4.296
X5.188Y-4.411
X5.217Y-4.476
X5.2312Y-4.5127
X5.2351Y-4.2048
X5.249Y-3.996
X5.287Y-4.302
X5.3334Y-4.171
X5.344Y-3.977
X5.362Y-3.914
X5.409Y-3.703
X5.41Y-3.986
X5.413Y-3.789
X5.42Y-4.233
X5.442Y-4.4233
X5.4753Y-4.0532
X5.5046Y-4.1735
X5.522Y-4.423
X5.5305Y-4.2043
X5.539Y-3.308
X5.639Y-4.016
X5.699Y-4.05
X5.705Y-4.1735
X5.728Y-3.4116
X5.7281Y-3.948
X5.743Y-3.665
X5.744Y-3.33
X5.75Y-4.189
X5.835Y-3.3545
X5.836Y-4.439
X5.871Y-3.451
X5.961Y-3.7996
X5.9741Y-4.4172
X5.975Y-3.998
X5.993Y-3.602
X6.027Y-3.985
X6.028Y-4.042
X6.047Y-3.419
X6.065Y-4.529
X6.123Y-3.419
X6.124Y-3.9453
X6.129Y-4.026
X6.153Y-3.515
X6.1715Y-3.63
X6.1715Y-3.691
X6.1751Y-3.7302
X6.228Y-4.113
T2
X4.015Y-3.255
X4.115Y-3.255
X4.215Y-3.255
X4.315Y-3.255
X4.415Y-3.255
X5.831Y-4.223
X5.931Y-4.223
X4.981Y-4.564
X5.081Y-4.564
X5.181Y-4.564
X5.281Y-4.564
X5.381Y-4.564
X5.481Y-4.564
X5.581Y-4.564
X5.681Y-4.564
X4.019Y-4.555
X4.119Y-4.555
X4.219Y-4.555
X4.319Y-4.555
X4.419Y-4.555
X4.519Y-4.555
T0
M30
