G04 #@! TF.GenerationSoftware,KiCad,Pcbnew,(5.1.4)-1*
G04 #@! TF.CreationDate,2019-11-03T20:25:49+01:00*
G04 #@! TF.ProjectId,121019_breakoutBoard_cureBag_V1,31323130-3139-45f6-9272-65616b6f7574,rev?*
G04 #@! TF.SameCoordinates,Original*
G04 #@! TF.FileFunction,Paste,Top*
G04 #@! TF.FilePolarity,Positive*
%FSLAX46Y46*%
G04 Gerber Fmt 4.6, Leading zero omitted, Abs format (unit mm)*
G04 Created by KiCad (PCBNEW (5.1.4)-1) date 2019-11-03 20:25:49*
%MOMM*%
%LPD*%
G04 APERTURE LIST*
%ADD10R,3.150000X1.000000*%
%ADD11R,1.000000X2.510000*%
%ADD12R,2.510000X1.000000*%
%ADD13R,1.998980X0.998220*%
%ADD14R,0.998220X1.998980*%
%ADD15R,2.500000X1.250000*%
%ADD16R,1.250000X2.500000*%
%ADD17R,0.700000X1.600000*%
%ADD18R,1.600000X0.700000*%
%ADD19R,2.030000X2.030000*%
%ADD20R,1.830000X1.830000*%
%ADD21C,0.100000*%
%ADD22C,0.950000*%
G04 APERTURE END LIST*
D10*
X137642600Y-106172000D03*
X142692600Y-106172000D03*
X137642600Y-108712000D03*
X142692600Y-108712000D03*
X137642600Y-111252000D03*
X142692600Y-111252000D03*
X137642600Y-113792000D03*
X142692600Y-113792000D03*
D11*
X155270200Y-104974200D03*
X157810200Y-108284200D03*
D12*
X105464800Y-110617000D03*
X102154800Y-113157000D03*
D13*
X121820940Y-81356200D03*
X121820940Y-82626200D03*
X121820940Y-85166200D03*
X121820940Y-86436200D03*
X121820940Y-87706200D03*
X121820940Y-88976200D03*
X121820940Y-90246200D03*
X121820940Y-91516200D03*
X121820940Y-92786200D03*
X121820940Y-94056200D03*
X121820940Y-95326200D03*
X121820940Y-96596200D03*
X121820940Y-97866200D03*
X121820940Y-99136200D03*
X121820940Y-100406200D03*
X121820940Y-101676200D03*
D14*
X123586240Y-103421180D03*
X124856240Y-103421180D03*
X126126240Y-103421180D03*
X127396240Y-103421180D03*
X128666240Y-103421180D03*
X129936240Y-103421180D03*
X131206240Y-103421180D03*
X132476240Y-103421180D03*
X133746240Y-103421180D03*
X135016240Y-103421180D03*
X136286240Y-103421180D03*
X137556240Y-103421180D03*
D13*
X139319000Y-101676200D03*
X139319000Y-100406200D03*
X139319000Y-99136200D03*
X139319000Y-97866200D03*
X139319000Y-96596200D03*
X139319000Y-95326200D03*
X139319000Y-94056200D03*
X139319000Y-92786200D03*
X139319000Y-91516200D03*
X139319000Y-90246200D03*
X139319000Y-88976200D03*
X139319000Y-87706200D03*
X139319000Y-86436200D03*
X139319000Y-85166200D03*
X139319000Y-82626200D03*
X139319000Y-81356200D03*
D15*
X158749000Y-96880000D03*
X158749000Y-88880000D03*
X158749000Y-86880000D03*
X158749000Y-84880000D03*
X142749000Y-96880000D03*
X142749000Y-94880000D03*
X142749000Y-92880000D03*
X142749000Y-90880000D03*
X142749000Y-88880000D03*
X142749000Y-86880000D03*
X142749000Y-84880000D03*
X142749000Y-82880000D03*
D16*
X145749000Y-98360000D03*
X147749000Y-98360000D03*
X149749000Y-98360000D03*
X151749000Y-98360000D03*
X153749000Y-98360000D03*
X155749000Y-98360000D03*
D15*
X158749000Y-92880000D03*
X158749000Y-90880000D03*
X158749000Y-94880000D03*
X158749000Y-82880000D03*
D17*
X104405800Y-107954200D03*
X105675800Y-107954200D03*
X106945800Y-107954200D03*
X108215800Y-107954200D03*
X109485800Y-107954200D03*
X110755800Y-107954200D03*
X112025800Y-107954200D03*
X113295800Y-107954200D03*
X114565800Y-107954200D03*
X116055800Y-86254200D03*
X115895800Y-107954200D03*
X114785800Y-86254200D03*
X113515800Y-86254200D03*
X112245800Y-86254200D03*
X110975800Y-86254200D03*
X109705800Y-86254200D03*
X108435800Y-86254200D03*
X107165800Y-86254200D03*
X105895800Y-86254200D03*
X104625800Y-86254200D03*
X103355800Y-86254200D03*
D18*
X102055800Y-107164200D03*
X102055800Y-105894200D03*
X102055800Y-104624200D03*
X102055800Y-103354200D03*
X102055800Y-102084200D03*
X102055800Y-100814200D03*
X102055800Y-99544200D03*
X102055800Y-98274200D03*
X102055800Y-95734200D03*
X102055800Y-97004200D03*
X102055800Y-94464200D03*
X102055800Y-93134200D03*
X102055800Y-91864200D03*
X102055800Y-90594200D03*
X102055800Y-89324200D03*
X102055800Y-88054200D03*
X117755800Y-107104200D03*
X117755800Y-105834200D03*
X117755800Y-103294200D03*
X117755800Y-104564200D03*
X117755800Y-102024200D03*
X117755800Y-100754200D03*
X117755800Y-99484200D03*
X117755800Y-98214200D03*
X117755800Y-96944200D03*
X117755800Y-94404200D03*
X117755800Y-93134200D03*
X117755800Y-95674200D03*
X117755800Y-90594200D03*
X117755800Y-91864200D03*
D19*
X106150800Y-99739200D03*
D20*
X107340800Y-90414200D03*
D21*
G36*
X154680579Y-100618144D02*
G01*
X154703634Y-100621563D01*
X154726243Y-100627227D01*
X154748187Y-100635079D01*
X154769257Y-100645044D01*
X154789248Y-100657026D01*
X154807968Y-100670910D01*
X154825238Y-100686562D01*
X154840890Y-100703832D01*
X154854774Y-100722552D01*
X154866756Y-100742543D01*
X154876721Y-100763613D01*
X154884573Y-100785557D01*
X154890237Y-100808166D01*
X154893656Y-100831221D01*
X154894800Y-100854500D01*
X154894800Y-101329500D01*
X154893656Y-101352779D01*
X154890237Y-101375834D01*
X154884573Y-101398443D01*
X154876721Y-101420387D01*
X154866756Y-101441457D01*
X154854774Y-101461448D01*
X154840890Y-101480168D01*
X154825238Y-101497438D01*
X154807968Y-101513090D01*
X154789248Y-101526974D01*
X154769257Y-101538956D01*
X154748187Y-101548921D01*
X154726243Y-101556773D01*
X154703634Y-101562437D01*
X154680579Y-101565856D01*
X154657300Y-101567000D01*
X154082300Y-101567000D01*
X154059021Y-101565856D01*
X154035966Y-101562437D01*
X154013357Y-101556773D01*
X153991413Y-101548921D01*
X153970343Y-101538956D01*
X153950352Y-101526974D01*
X153931632Y-101513090D01*
X153914362Y-101497438D01*
X153898710Y-101480168D01*
X153884826Y-101461448D01*
X153872844Y-101441457D01*
X153862879Y-101420387D01*
X153855027Y-101398443D01*
X153849363Y-101375834D01*
X153845944Y-101352779D01*
X153844800Y-101329500D01*
X153844800Y-100854500D01*
X153845944Y-100831221D01*
X153849363Y-100808166D01*
X153855027Y-100785557D01*
X153862879Y-100763613D01*
X153872844Y-100742543D01*
X153884826Y-100722552D01*
X153898710Y-100703832D01*
X153914362Y-100686562D01*
X153931632Y-100670910D01*
X153950352Y-100657026D01*
X153970343Y-100645044D01*
X153991413Y-100635079D01*
X154013357Y-100627227D01*
X154035966Y-100621563D01*
X154059021Y-100618144D01*
X154082300Y-100617000D01*
X154657300Y-100617000D01*
X154680579Y-100618144D01*
X154680579Y-100618144D01*
G37*
D22*
X154369800Y-101092000D03*
D21*
G36*
X156430579Y-100618144D02*
G01*
X156453634Y-100621563D01*
X156476243Y-100627227D01*
X156498187Y-100635079D01*
X156519257Y-100645044D01*
X156539248Y-100657026D01*
X156557968Y-100670910D01*
X156575238Y-100686562D01*
X156590890Y-100703832D01*
X156604774Y-100722552D01*
X156616756Y-100742543D01*
X156626721Y-100763613D01*
X156634573Y-100785557D01*
X156640237Y-100808166D01*
X156643656Y-100831221D01*
X156644800Y-100854500D01*
X156644800Y-101329500D01*
X156643656Y-101352779D01*
X156640237Y-101375834D01*
X156634573Y-101398443D01*
X156626721Y-101420387D01*
X156616756Y-101441457D01*
X156604774Y-101461448D01*
X156590890Y-101480168D01*
X156575238Y-101497438D01*
X156557968Y-101513090D01*
X156539248Y-101526974D01*
X156519257Y-101538956D01*
X156498187Y-101548921D01*
X156476243Y-101556773D01*
X156453634Y-101562437D01*
X156430579Y-101565856D01*
X156407300Y-101567000D01*
X155832300Y-101567000D01*
X155809021Y-101565856D01*
X155785966Y-101562437D01*
X155763357Y-101556773D01*
X155741413Y-101548921D01*
X155720343Y-101538956D01*
X155700352Y-101526974D01*
X155681632Y-101513090D01*
X155664362Y-101497438D01*
X155648710Y-101480168D01*
X155634826Y-101461448D01*
X155622844Y-101441457D01*
X155612879Y-101420387D01*
X155605027Y-101398443D01*
X155599363Y-101375834D01*
X155595944Y-101352779D01*
X155594800Y-101329500D01*
X155594800Y-100854500D01*
X155595944Y-100831221D01*
X155599363Y-100808166D01*
X155605027Y-100785557D01*
X155612879Y-100763613D01*
X155622844Y-100742543D01*
X155634826Y-100722552D01*
X155648710Y-100703832D01*
X155664362Y-100686562D01*
X155681632Y-100670910D01*
X155700352Y-100657026D01*
X155720343Y-100645044D01*
X155741413Y-100635079D01*
X155763357Y-100627227D01*
X155785966Y-100621563D01*
X155809021Y-100618144D01*
X155832300Y-100617000D01*
X156407300Y-100617000D01*
X156430579Y-100618144D01*
X156430579Y-100618144D01*
G37*
D22*
X156119800Y-101092000D03*
D21*
G36*
X158197979Y-101685744D02*
G01*
X158221034Y-101689163D01*
X158243643Y-101694827D01*
X158265587Y-101702679D01*
X158286657Y-101712644D01*
X158306648Y-101724626D01*
X158325368Y-101738510D01*
X158342638Y-101754162D01*
X158358290Y-101771432D01*
X158372174Y-101790152D01*
X158384156Y-101810143D01*
X158394121Y-101831213D01*
X158401973Y-101853157D01*
X158407637Y-101875766D01*
X158411056Y-101898821D01*
X158412200Y-101922100D01*
X158412200Y-102497100D01*
X158411056Y-102520379D01*
X158407637Y-102543434D01*
X158401973Y-102566043D01*
X158394121Y-102587987D01*
X158384156Y-102609057D01*
X158372174Y-102629048D01*
X158358290Y-102647768D01*
X158342638Y-102665038D01*
X158325368Y-102680690D01*
X158306648Y-102694574D01*
X158286657Y-102706556D01*
X158265587Y-102716521D01*
X158243643Y-102724373D01*
X158221034Y-102730037D01*
X158197979Y-102733456D01*
X158174700Y-102734600D01*
X157699700Y-102734600D01*
X157676421Y-102733456D01*
X157653366Y-102730037D01*
X157630757Y-102724373D01*
X157608813Y-102716521D01*
X157587743Y-102706556D01*
X157567752Y-102694574D01*
X157549032Y-102680690D01*
X157531762Y-102665038D01*
X157516110Y-102647768D01*
X157502226Y-102629048D01*
X157490244Y-102609057D01*
X157480279Y-102587987D01*
X157472427Y-102566043D01*
X157466763Y-102543434D01*
X157463344Y-102520379D01*
X157462200Y-102497100D01*
X157462200Y-101922100D01*
X157463344Y-101898821D01*
X157466763Y-101875766D01*
X157472427Y-101853157D01*
X157480279Y-101831213D01*
X157490244Y-101810143D01*
X157502226Y-101790152D01*
X157516110Y-101771432D01*
X157531762Y-101754162D01*
X157549032Y-101738510D01*
X157567752Y-101724626D01*
X157587743Y-101712644D01*
X157608813Y-101702679D01*
X157630757Y-101694827D01*
X157653366Y-101689163D01*
X157676421Y-101685744D01*
X157699700Y-101684600D01*
X158174700Y-101684600D01*
X158197979Y-101685744D01*
X158197979Y-101685744D01*
G37*
D22*
X157937200Y-102209600D03*
D21*
G36*
X158197979Y-99935744D02*
G01*
X158221034Y-99939163D01*
X158243643Y-99944827D01*
X158265587Y-99952679D01*
X158286657Y-99962644D01*
X158306648Y-99974626D01*
X158325368Y-99988510D01*
X158342638Y-100004162D01*
X158358290Y-100021432D01*
X158372174Y-100040152D01*
X158384156Y-100060143D01*
X158394121Y-100081213D01*
X158401973Y-100103157D01*
X158407637Y-100125766D01*
X158411056Y-100148821D01*
X158412200Y-100172100D01*
X158412200Y-100747100D01*
X158411056Y-100770379D01*
X158407637Y-100793434D01*
X158401973Y-100816043D01*
X158394121Y-100837987D01*
X158384156Y-100859057D01*
X158372174Y-100879048D01*
X158358290Y-100897768D01*
X158342638Y-100915038D01*
X158325368Y-100930690D01*
X158306648Y-100944574D01*
X158286657Y-100956556D01*
X158265587Y-100966521D01*
X158243643Y-100974373D01*
X158221034Y-100980037D01*
X158197979Y-100983456D01*
X158174700Y-100984600D01*
X157699700Y-100984600D01*
X157676421Y-100983456D01*
X157653366Y-100980037D01*
X157630757Y-100974373D01*
X157608813Y-100966521D01*
X157587743Y-100956556D01*
X157567752Y-100944574D01*
X157549032Y-100930690D01*
X157531762Y-100915038D01*
X157516110Y-100897768D01*
X157502226Y-100879048D01*
X157490244Y-100859057D01*
X157480279Y-100837987D01*
X157472427Y-100816043D01*
X157466763Y-100793434D01*
X157463344Y-100770379D01*
X157462200Y-100747100D01*
X157462200Y-100172100D01*
X157463344Y-100148821D01*
X157466763Y-100125766D01*
X157472427Y-100103157D01*
X157480279Y-100081213D01*
X157490244Y-100060143D01*
X157502226Y-100040152D01*
X157516110Y-100021432D01*
X157531762Y-100004162D01*
X157549032Y-99988510D01*
X157567752Y-99974626D01*
X157587743Y-99962644D01*
X157608813Y-99952679D01*
X157630757Y-99944827D01*
X157653366Y-99939163D01*
X157676421Y-99935744D01*
X157699700Y-99934600D01*
X158174700Y-99934600D01*
X158197979Y-99935744D01*
X158197979Y-99935744D01*
G37*
D22*
X157937200Y-100459600D03*
D21*
G36*
X153397379Y-107592544D02*
G01*
X153420434Y-107595963D01*
X153443043Y-107601627D01*
X153464987Y-107609479D01*
X153486057Y-107619444D01*
X153506048Y-107631426D01*
X153524768Y-107645310D01*
X153542038Y-107660962D01*
X153557690Y-107678232D01*
X153571574Y-107696952D01*
X153583556Y-107716943D01*
X153593521Y-107738013D01*
X153601373Y-107759957D01*
X153607037Y-107782566D01*
X153610456Y-107805621D01*
X153611600Y-107828900D01*
X153611600Y-108403900D01*
X153610456Y-108427179D01*
X153607037Y-108450234D01*
X153601373Y-108472843D01*
X153593521Y-108494787D01*
X153583556Y-108515857D01*
X153571574Y-108535848D01*
X153557690Y-108554568D01*
X153542038Y-108571838D01*
X153524768Y-108587490D01*
X153506048Y-108601374D01*
X153486057Y-108613356D01*
X153464987Y-108623321D01*
X153443043Y-108631173D01*
X153420434Y-108636837D01*
X153397379Y-108640256D01*
X153374100Y-108641400D01*
X152899100Y-108641400D01*
X152875821Y-108640256D01*
X152852766Y-108636837D01*
X152830157Y-108631173D01*
X152808213Y-108623321D01*
X152787143Y-108613356D01*
X152767152Y-108601374D01*
X152748432Y-108587490D01*
X152731162Y-108571838D01*
X152715510Y-108554568D01*
X152701626Y-108535848D01*
X152689644Y-108515857D01*
X152679679Y-108494787D01*
X152671827Y-108472843D01*
X152666163Y-108450234D01*
X152662744Y-108427179D01*
X152661600Y-108403900D01*
X152661600Y-107828900D01*
X152662744Y-107805621D01*
X152666163Y-107782566D01*
X152671827Y-107759957D01*
X152679679Y-107738013D01*
X152689644Y-107716943D01*
X152701626Y-107696952D01*
X152715510Y-107678232D01*
X152731162Y-107660962D01*
X152748432Y-107645310D01*
X152767152Y-107631426D01*
X152787143Y-107619444D01*
X152808213Y-107609479D01*
X152830157Y-107601627D01*
X152852766Y-107595963D01*
X152875821Y-107592544D01*
X152899100Y-107591400D01*
X153374100Y-107591400D01*
X153397379Y-107592544D01*
X153397379Y-107592544D01*
G37*
D22*
X153136600Y-108116400D03*
D21*
G36*
X153397379Y-109342544D02*
G01*
X153420434Y-109345963D01*
X153443043Y-109351627D01*
X153464987Y-109359479D01*
X153486057Y-109369444D01*
X153506048Y-109381426D01*
X153524768Y-109395310D01*
X153542038Y-109410962D01*
X153557690Y-109428232D01*
X153571574Y-109446952D01*
X153583556Y-109466943D01*
X153593521Y-109488013D01*
X153601373Y-109509957D01*
X153607037Y-109532566D01*
X153610456Y-109555621D01*
X153611600Y-109578900D01*
X153611600Y-110153900D01*
X153610456Y-110177179D01*
X153607037Y-110200234D01*
X153601373Y-110222843D01*
X153593521Y-110244787D01*
X153583556Y-110265857D01*
X153571574Y-110285848D01*
X153557690Y-110304568D01*
X153542038Y-110321838D01*
X153524768Y-110337490D01*
X153506048Y-110351374D01*
X153486057Y-110363356D01*
X153464987Y-110373321D01*
X153443043Y-110381173D01*
X153420434Y-110386837D01*
X153397379Y-110390256D01*
X153374100Y-110391400D01*
X152899100Y-110391400D01*
X152875821Y-110390256D01*
X152852766Y-110386837D01*
X152830157Y-110381173D01*
X152808213Y-110373321D01*
X152787143Y-110363356D01*
X152767152Y-110351374D01*
X152748432Y-110337490D01*
X152731162Y-110321838D01*
X152715510Y-110304568D01*
X152701626Y-110285848D01*
X152689644Y-110265857D01*
X152679679Y-110244787D01*
X152671827Y-110222843D01*
X152666163Y-110200234D01*
X152662744Y-110177179D01*
X152661600Y-110153900D01*
X152661600Y-109578900D01*
X152662744Y-109555621D01*
X152666163Y-109532566D01*
X152671827Y-109509957D01*
X152679679Y-109488013D01*
X152689644Y-109466943D01*
X152701626Y-109446952D01*
X152715510Y-109428232D01*
X152731162Y-109410962D01*
X152748432Y-109395310D01*
X152767152Y-109381426D01*
X152787143Y-109369444D01*
X152808213Y-109359479D01*
X152830157Y-109351627D01*
X152852766Y-109345963D01*
X152875821Y-109342544D01*
X152899100Y-109341400D01*
X153374100Y-109341400D01*
X153397379Y-109342544D01*
X153397379Y-109342544D01*
G37*
D22*
X153136600Y-109866400D03*
D21*
G36*
X123222179Y-107132744D02*
G01*
X123245234Y-107136163D01*
X123267843Y-107141827D01*
X123289787Y-107149679D01*
X123310857Y-107159644D01*
X123330848Y-107171626D01*
X123349568Y-107185510D01*
X123366838Y-107201162D01*
X123382490Y-107218432D01*
X123396374Y-107237152D01*
X123408356Y-107257143D01*
X123418321Y-107278213D01*
X123426173Y-107300157D01*
X123431837Y-107322766D01*
X123435256Y-107345821D01*
X123436400Y-107369100D01*
X123436400Y-107944100D01*
X123435256Y-107967379D01*
X123431837Y-107990434D01*
X123426173Y-108013043D01*
X123418321Y-108034987D01*
X123408356Y-108056057D01*
X123396374Y-108076048D01*
X123382490Y-108094768D01*
X123366838Y-108112038D01*
X123349568Y-108127690D01*
X123330848Y-108141574D01*
X123310857Y-108153556D01*
X123289787Y-108163521D01*
X123267843Y-108171373D01*
X123245234Y-108177037D01*
X123222179Y-108180456D01*
X123198900Y-108181600D01*
X122723900Y-108181600D01*
X122700621Y-108180456D01*
X122677566Y-108177037D01*
X122654957Y-108171373D01*
X122633013Y-108163521D01*
X122611943Y-108153556D01*
X122591952Y-108141574D01*
X122573232Y-108127690D01*
X122555962Y-108112038D01*
X122540310Y-108094768D01*
X122526426Y-108076048D01*
X122514444Y-108056057D01*
X122504479Y-108034987D01*
X122496627Y-108013043D01*
X122490963Y-107990434D01*
X122487544Y-107967379D01*
X122486400Y-107944100D01*
X122486400Y-107369100D01*
X122487544Y-107345821D01*
X122490963Y-107322766D01*
X122496627Y-107300157D01*
X122504479Y-107278213D01*
X122514444Y-107257143D01*
X122526426Y-107237152D01*
X122540310Y-107218432D01*
X122555962Y-107201162D01*
X122573232Y-107185510D01*
X122591952Y-107171626D01*
X122611943Y-107159644D01*
X122633013Y-107149679D01*
X122654957Y-107141827D01*
X122677566Y-107136163D01*
X122700621Y-107132744D01*
X122723900Y-107131600D01*
X123198900Y-107131600D01*
X123222179Y-107132744D01*
X123222179Y-107132744D01*
G37*
D22*
X122961400Y-107656600D03*
D21*
G36*
X123222179Y-105382744D02*
G01*
X123245234Y-105386163D01*
X123267843Y-105391827D01*
X123289787Y-105399679D01*
X123310857Y-105409644D01*
X123330848Y-105421626D01*
X123349568Y-105435510D01*
X123366838Y-105451162D01*
X123382490Y-105468432D01*
X123396374Y-105487152D01*
X123408356Y-105507143D01*
X123418321Y-105528213D01*
X123426173Y-105550157D01*
X123431837Y-105572766D01*
X123435256Y-105595821D01*
X123436400Y-105619100D01*
X123436400Y-106194100D01*
X123435256Y-106217379D01*
X123431837Y-106240434D01*
X123426173Y-106263043D01*
X123418321Y-106284987D01*
X123408356Y-106306057D01*
X123396374Y-106326048D01*
X123382490Y-106344768D01*
X123366838Y-106362038D01*
X123349568Y-106377690D01*
X123330848Y-106391574D01*
X123310857Y-106403556D01*
X123289787Y-106413521D01*
X123267843Y-106421373D01*
X123245234Y-106427037D01*
X123222179Y-106430456D01*
X123198900Y-106431600D01*
X122723900Y-106431600D01*
X122700621Y-106430456D01*
X122677566Y-106427037D01*
X122654957Y-106421373D01*
X122633013Y-106413521D01*
X122611943Y-106403556D01*
X122591952Y-106391574D01*
X122573232Y-106377690D01*
X122555962Y-106362038D01*
X122540310Y-106344768D01*
X122526426Y-106326048D01*
X122514444Y-106306057D01*
X122504479Y-106284987D01*
X122496627Y-106263043D01*
X122490963Y-106240434D01*
X122487544Y-106217379D01*
X122486400Y-106194100D01*
X122486400Y-105619100D01*
X122487544Y-105595821D01*
X122490963Y-105572766D01*
X122496627Y-105550157D01*
X122504479Y-105528213D01*
X122514444Y-105507143D01*
X122526426Y-105487152D01*
X122540310Y-105468432D01*
X122555962Y-105451162D01*
X122573232Y-105435510D01*
X122591952Y-105421626D01*
X122611943Y-105409644D01*
X122633013Y-105399679D01*
X122654957Y-105391827D01*
X122677566Y-105386163D01*
X122700621Y-105382744D01*
X122723900Y-105381600D01*
X123198900Y-105381600D01*
X123222179Y-105382744D01*
X123222179Y-105382744D01*
G37*
D22*
X122961400Y-105906600D03*
D21*
G36*
X144354979Y-100362344D02*
G01*
X144378034Y-100365763D01*
X144400643Y-100371427D01*
X144422587Y-100379279D01*
X144443657Y-100389244D01*
X144463648Y-100401226D01*
X144482368Y-100415110D01*
X144499638Y-100430762D01*
X144515290Y-100448032D01*
X144529174Y-100466752D01*
X144541156Y-100486743D01*
X144551121Y-100507813D01*
X144558973Y-100529757D01*
X144564637Y-100552366D01*
X144568056Y-100575421D01*
X144569200Y-100598700D01*
X144569200Y-101173700D01*
X144568056Y-101196979D01*
X144564637Y-101220034D01*
X144558973Y-101242643D01*
X144551121Y-101264587D01*
X144541156Y-101285657D01*
X144529174Y-101305648D01*
X144515290Y-101324368D01*
X144499638Y-101341638D01*
X144482368Y-101357290D01*
X144463648Y-101371174D01*
X144443657Y-101383156D01*
X144422587Y-101393121D01*
X144400643Y-101400973D01*
X144378034Y-101406637D01*
X144354979Y-101410056D01*
X144331700Y-101411200D01*
X143856700Y-101411200D01*
X143833421Y-101410056D01*
X143810366Y-101406637D01*
X143787757Y-101400973D01*
X143765813Y-101393121D01*
X143744743Y-101383156D01*
X143724752Y-101371174D01*
X143706032Y-101357290D01*
X143688762Y-101341638D01*
X143673110Y-101324368D01*
X143659226Y-101305648D01*
X143647244Y-101285657D01*
X143637279Y-101264587D01*
X143629427Y-101242643D01*
X143623763Y-101220034D01*
X143620344Y-101196979D01*
X143619200Y-101173700D01*
X143619200Y-100598700D01*
X143620344Y-100575421D01*
X143623763Y-100552366D01*
X143629427Y-100529757D01*
X143637279Y-100507813D01*
X143647244Y-100486743D01*
X143659226Y-100466752D01*
X143673110Y-100448032D01*
X143688762Y-100430762D01*
X143706032Y-100415110D01*
X143724752Y-100401226D01*
X143744743Y-100389244D01*
X143765813Y-100379279D01*
X143787757Y-100371427D01*
X143810366Y-100365763D01*
X143833421Y-100362344D01*
X143856700Y-100361200D01*
X144331700Y-100361200D01*
X144354979Y-100362344D01*
X144354979Y-100362344D01*
G37*
D22*
X144094200Y-100886200D03*
D21*
G36*
X144354979Y-98612344D02*
G01*
X144378034Y-98615763D01*
X144400643Y-98621427D01*
X144422587Y-98629279D01*
X144443657Y-98639244D01*
X144463648Y-98651226D01*
X144482368Y-98665110D01*
X144499638Y-98680762D01*
X144515290Y-98698032D01*
X144529174Y-98716752D01*
X144541156Y-98736743D01*
X144551121Y-98757813D01*
X144558973Y-98779757D01*
X144564637Y-98802366D01*
X144568056Y-98825421D01*
X144569200Y-98848700D01*
X144569200Y-99423700D01*
X144568056Y-99446979D01*
X144564637Y-99470034D01*
X144558973Y-99492643D01*
X144551121Y-99514587D01*
X144541156Y-99535657D01*
X144529174Y-99555648D01*
X144515290Y-99574368D01*
X144499638Y-99591638D01*
X144482368Y-99607290D01*
X144463648Y-99621174D01*
X144443657Y-99633156D01*
X144422587Y-99643121D01*
X144400643Y-99650973D01*
X144378034Y-99656637D01*
X144354979Y-99660056D01*
X144331700Y-99661200D01*
X143856700Y-99661200D01*
X143833421Y-99660056D01*
X143810366Y-99656637D01*
X143787757Y-99650973D01*
X143765813Y-99643121D01*
X143744743Y-99633156D01*
X143724752Y-99621174D01*
X143706032Y-99607290D01*
X143688762Y-99591638D01*
X143673110Y-99574368D01*
X143659226Y-99555648D01*
X143647244Y-99535657D01*
X143637279Y-99514587D01*
X143629427Y-99492643D01*
X143623763Y-99470034D01*
X143620344Y-99446979D01*
X143619200Y-99423700D01*
X143619200Y-98848700D01*
X143620344Y-98825421D01*
X143623763Y-98802366D01*
X143629427Y-98779757D01*
X143637279Y-98757813D01*
X143647244Y-98736743D01*
X143659226Y-98716752D01*
X143673110Y-98698032D01*
X143688762Y-98680762D01*
X143706032Y-98665110D01*
X143724752Y-98651226D01*
X143744743Y-98639244D01*
X143765813Y-98629279D01*
X143787757Y-98621427D01*
X143810366Y-98615763D01*
X143833421Y-98612344D01*
X143856700Y-98611200D01*
X144331700Y-98611200D01*
X144354979Y-98612344D01*
X144354979Y-98612344D01*
G37*
D22*
X144094200Y-99136200D03*
D21*
G36*
X142780179Y-98663144D02*
G01*
X142803234Y-98666563D01*
X142825843Y-98672227D01*
X142847787Y-98680079D01*
X142868857Y-98690044D01*
X142888848Y-98702026D01*
X142907568Y-98715910D01*
X142924838Y-98731562D01*
X142940490Y-98748832D01*
X142954374Y-98767552D01*
X142966356Y-98787543D01*
X142976321Y-98808613D01*
X142984173Y-98830557D01*
X142989837Y-98853166D01*
X142993256Y-98876221D01*
X142994400Y-98899500D01*
X142994400Y-99474500D01*
X142993256Y-99497779D01*
X142989837Y-99520834D01*
X142984173Y-99543443D01*
X142976321Y-99565387D01*
X142966356Y-99586457D01*
X142954374Y-99606448D01*
X142940490Y-99625168D01*
X142924838Y-99642438D01*
X142907568Y-99658090D01*
X142888848Y-99671974D01*
X142868857Y-99683956D01*
X142847787Y-99693921D01*
X142825843Y-99701773D01*
X142803234Y-99707437D01*
X142780179Y-99710856D01*
X142756900Y-99712000D01*
X142281900Y-99712000D01*
X142258621Y-99710856D01*
X142235566Y-99707437D01*
X142212957Y-99701773D01*
X142191013Y-99693921D01*
X142169943Y-99683956D01*
X142149952Y-99671974D01*
X142131232Y-99658090D01*
X142113962Y-99642438D01*
X142098310Y-99625168D01*
X142084426Y-99606448D01*
X142072444Y-99586457D01*
X142062479Y-99565387D01*
X142054627Y-99543443D01*
X142048963Y-99520834D01*
X142045544Y-99497779D01*
X142044400Y-99474500D01*
X142044400Y-98899500D01*
X142045544Y-98876221D01*
X142048963Y-98853166D01*
X142054627Y-98830557D01*
X142062479Y-98808613D01*
X142072444Y-98787543D01*
X142084426Y-98767552D01*
X142098310Y-98748832D01*
X142113962Y-98731562D01*
X142131232Y-98715910D01*
X142149952Y-98702026D01*
X142169943Y-98690044D01*
X142191013Y-98680079D01*
X142212957Y-98672227D01*
X142235566Y-98666563D01*
X142258621Y-98663144D01*
X142281900Y-98662000D01*
X142756900Y-98662000D01*
X142780179Y-98663144D01*
X142780179Y-98663144D01*
G37*
D22*
X142519400Y-99187000D03*
D21*
G36*
X142780179Y-100413144D02*
G01*
X142803234Y-100416563D01*
X142825843Y-100422227D01*
X142847787Y-100430079D01*
X142868857Y-100440044D01*
X142888848Y-100452026D01*
X142907568Y-100465910D01*
X142924838Y-100481562D01*
X142940490Y-100498832D01*
X142954374Y-100517552D01*
X142966356Y-100537543D01*
X142976321Y-100558613D01*
X142984173Y-100580557D01*
X142989837Y-100603166D01*
X142993256Y-100626221D01*
X142994400Y-100649500D01*
X142994400Y-101224500D01*
X142993256Y-101247779D01*
X142989837Y-101270834D01*
X142984173Y-101293443D01*
X142976321Y-101315387D01*
X142966356Y-101336457D01*
X142954374Y-101356448D01*
X142940490Y-101375168D01*
X142924838Y-101392438D01*
X142907568Y-101408090D01*
X142888848Y-101421974D01*
X142868857Y-101433956D01*
X142847787Y-101443921D01*
X142825843Y-101451773D01*
X142803234Y-101457437D01*
X142780179Y-101460856D01*
X142756900Y-101462000D01*
X142281900Y-101462000D01*
X142258621Y-101460856D01*
X142235566Y-101457437D01*
X142212957Y-101451773D01*
X142191013Y-101443921D01*
X142169943Y-101433956D01*
X142149952Y-101421974D01*
X142131232Y-101408090D01*
X142113962Y-101392438D01*
X142098310Y-101375168D01*
X142084426Y-101356448D01*
X142072444Y-101336457D01*
X142062479Y-101315387D01*
X142054627Y-101293443D01*
X142048963Y-101270834D01*
X142045544Y-101247779D01*
X142044400Y-101224500D01*
X142044400Y-100649500D01*
X142045544Y-100626221D01*
X142048963Y-100603166D01*
X142054627Y-100580557D01*
X142062479Y-100558613D01*
X142072444Y-100537543D01*
X142084426Y-100517552D01*
X142098310Y-100498832D01*
X142113962Y-100481562D01*
X142131232Y-100465910D01*
X142149952Y-100452026D01*
X142169943Y-100440044D01*
X142191013Y-100430079D01*
X142212957Y-100422227D01*
X142235566Y-100416563D01*
X142258621Y-100413144D01*
X142281900Y-100412000D01*
X142756900Y-100412000D01*
X142780179Y-100413144D01*
X142780179Y-100413144D01*
G37*
D22*
X142519400Y-100937000D03*
D21*
G36*
X121520379Y-105357344D02*
G01*
X121543434Y-105360763D01*
X121566043Y-105366427D01*
X121587987Y-105374279D01*
X121609057Y-105384244D01*
X121629048Y-105396226D01*
X121647768Y-105410110D01*
X121665038Y-105425762D01*
X121680690Y-105443032D01*
X121694574Y-105461752D01*
X121706556Y-105481743D01*
X121716521Y-105502813D01*
X121724373Y-105524757D01*
X121730037Y-105547366D01*
X121733456Y-105570421D01*
X121734600Y-105593700D01*
X121734600Y-106168700D01*
X121733456Y-106191979D01*
X121730037Y-106215034D01*
X121724373Y-106237643D01*
X121716521Y-106259587D01*
X121706556Y-106280657D01*
X121694574Y-106300648D01*
X121680690Y-106319368D01*
X121665038Y-106336638D01*
X121647768Y-106352290D01*
X121629048Y-106366174D01*
X121609057Y-106378156D01*
X121587987Y-106388121D01*
X121566043Y-106395973D01*
X121543434Y-106401637D01*
X121520379Y-106405056D01*
X121497100Y-106406200D01*
X121022100Y-106406200D01*
X120998821Y-106405056D01*
X120975766Y-106401637D01*
X120953157Y-106395973D01*
X120931213Y-106388121D01*
X120910143Y-106378156D01*
X120890152Y-106366174D01*
X120871432Y-106352290D01*
X120854162Y-106336638D01*
X120838510Y-106319368D01*
X120824626Y-106300648D01*
X120812644Y-106280657D01*
X120802679Y-106259587D01*
X120794827Y-106237643D01*
X120789163Y-106215034D01*
X120785744Y-106191979D01*
X120784600Y-106168700D01*
X120784600Y-105593700D01*
X120785744Y-105570421D01*
X120789163Y-105547366D01*
X120794827Y-105524757D01*
X120802679Y-105502813D01*
X120812644Y-105481743D01*
X120824626Y-105461752D01*
X120838510Y-105443032D01*
X120854162Y-105425762D01*
X120871432Y-105410110D01*
X120890152Y-105396226D01*
X120910143Y-105384244D01*
X120931213Y-105374279D01*
X120953157Y-105366427D01*
X120975766Y-105360763D01*
X120998821Y-105357344D01*
X121022100Y-105356200D01*
X121497100Y-105356200D01*
X121520379Y-105357344D01*
X121520379Y-105357344D01*
G37*
D22*
X121259600Y-105881200D03*
D21*
G36*
X121520379Y-107107344D02*
G01*
X121543434Y-107110763D01*
X121566043Y-107116427D01*
X121587987Y-107124279D01*
X121609057Y-107134244D01*
X121629048Y-107146226D01*
X121647768Y-107160110D01*
X121665038Y-107175762D01*
X121680690Y-107193032D01*
X121694574Y-107211752D01*
X121706556Y-107231743D01*
X121716521Y-107252813D01*
X121724373Y-107274757D01*
X121730037Y-107297366D01*
X121733456Y-107320421D01*
X121734600Y-107343700D01*
X121734600Y-107918700D01*
X121733456Y-107941979D01*
X121730037Y-107965034D01*
X121724373Y-107987643D01*
X121716521Y-108009587D01*
X121706556Y-108030657D01*
X121694574Y-108050648D01*
X121680690Y-108069368D01*
X121665038Y-108086638D01*
X121647768Y-108102290D01*
X121629048Y-108116174D01*
X121609057Y-108128156D01*
X121587987Y-108138121D01*
X121566043Y-108145973D01*
X121543434Y-108151637D01*
X121520379Y-108155056D01*
X121497100Y-108156200D01*
X121022100Y-108156200D01*
X120998821Y-108155056D01*
X120975766Y-108151637D01*
X120953157Y-108145973D01*
X120931213Y-108138121D01*
X120910143Y-108128156D01*
X120890152Y-108116174D01*
X120871432Y-108102290D01*
X120854162Y-108086638D01*
X120838510Y-108069368D01*
X120824626Y-108050648D01*
X120812644Y-108030657D01*
X120802679Y-108009587D01*
X120794827Y-107987643D01*
X120789163Y-107965034D01*
X120785744Y-107941979D01*
X120784600Y-107918700D01*
X120784600Y-107343700D01*
X120785744Y-107320421D01*
X120789163Y-107297366D01*
X120794827Y-107274757D01*
X120802679Y-107252813D01*
X120812644Y-107231743D01*
X120824626Y-107211752D01*
X120838510Y-107193032D01*
X120854162Y-107175762D01*
X120871432Y-107160110D01*
X120890152Y-107146226D01*
X120910143Y-107134244D01*
X120931213Y-107124279D01*
X120953157Y-107116427D01*
X120975766Y-107110763D01*
X120998821Y-107107344D01*
X121022100Y-107106200D01*
X121497100Y-107106200D01*
X121520379Y-107107344D01*
X121520379Y-107107344D01*
G37*
D22*
X121259600Y-107631200D03*
D21*
G36*
X114557379Y-112835544D02*
G01*
X114580434Y-112838963D01*
X114603043Y-112844627D01*
X114624987Y-112852479D01*
X114646057Y-112862444D01*
X114666048Y-112874426D01*
X114684768Y-112888310D01*
X114702038Y-112903962D01*
X114717690Y-112921232D01*
X114731574Y-112939952D01*
X114743556Y-112959943D01*
X114753521Y-112981013D01*
X114761373Y-113002957D01*
X114767037Y-113025566D01*
X114770456Y-113048621D01*
X114771600Y-113071900D01*
X114771600Y-113546900D01*
X114770456Y-113570179D01*
X114767037Y-113593234D01*
X114761373Y-113615843D01*
X114753521Y-113637787D01*
X114743556Y-113658857D01*
X114731574Y-113678848D01*
X114717690Y-113697568D01*
X114702038Y-113714838D01*
X114684768Y-113730490D01*
X114666048Y-113744374D01*
X114646057Y-113756356D01*
X114624987Y-113766321D01*
X114603043Y-113774173D01*
X114580434Y-113779837D01*
X114557379Y-113783256D01*
X114534100Y-113784400D01*
X113959100Y-113784400D01*
X113935821Y-113783256D01*
X113912766Y-113779837D01*
X113890157Y-113774173D01*
X113868213Y-113766321D01*
X113847143Y-113756356D01*
X113827152Y-113744374D01*
X113808432Y-113730490D01*
X113791162Y-113714838D01*
X113775510Y-113697568D01*
X113761626Y-113678848D01*
X113749644Y-113658857D01*
X113739679Y-113637787D01*
X113731827Y-113615843D01*
X113726163Y-113593234D01*
X113722744Y-113570179D01*
X113721600Y-113546900D01*
X113721600Y-113071900D01*
X113722744Y-113048621D01*
X113726163Y-113025566D01*
X113731827Y-113002957D01*
X113739679Y-112981013D01*
X113749644Y-112959943D01*
X113761626Y-112939952D01*
X113775510Y-112921232D01*
X113791162Y-112903962D01*
X113808432Y-112888310D01*
X113827152Y-112874426D01*
X113847143Y-112862444D01*
X113868213Y-112852479D01*
X113890157Y-112844627D01*
X113912766Y-112838963D01*
X113935821Y-112835544D01*
X113959100Y-112834400D01*
X114534100Y-112834400D01*
X114557379Y-112835544D01*
X114557379Y-112835544D01*
G37*
D22*
X114246600Y-113309400D03*
D21*
G36*
X112807379Y-112835544D02*
G01*
X112830434Y-112838963D01*
X112853043Y-112844627D01*
X112874987Y-112852479D01*
X112896057Y-112862444D01*
X112916048Y-112874426D01*
X112934768Y-112888310D01*
X112952038Y-112903962D01*
X112967690Y-112921232D01*
X112981574Y-112939952D01*
X112993556Y-112959943D01*
X113003521Y-112981013D01*
X113011373Y-113002957D01*
X113017037Y-113025566D01*
X113020456Y-113048621D01*
X113021600Y-113071900D01*
X113021600Y-113546900D01*
X113020456Y-113570179D01*
X113017037Y-113593234D01*
X113011373Y-113615843D01*
X113003521Y-113637787D01*
X112993556Y-113658857D01*
X112981574Y-113678848D01*
X112967690Y-113697568D01*
X112952038Y-113714838D01*
X112934768Y-113730490D01*
X112916048Y-113744374D01*
X112896057Y-113756356D01*
X112874987Y-113766321D01*
X112853043Y-113774173D01*
X112830434Y-113779837D01*
X112807379Y-113783256D01*
X112784100Y-113784400D01*
X112209100Y-113784400D01*
X112185821Y-113783256D01*
X112162766Y-113779837D01*
X112140157Y-113774173D01*
X112118213Y-113766321D01*
X112097143Y-113756356D01*
X112077152Y-113744374D01*
X112058432Y-113730490D01*
X112041162Y-113714838D01*
X112025510Y-113697568D01*
X112011626Y-113678848D01*
X111999644Y-113658857D01*
X111989679Y-113637787D01*
X111981827Y-113615843D01*
X111976163Y-113593234D01*
X111972744Y-113570179D01*
X111971600Y-113546900D01*
X111971600Y-113071900D01*
X111972744Y-113048621D01*
X111976163Y-113025566D01*
X111981827Y-113002957D01*
X111989679Y-112981013D01*
X111999644Y-112959943D01*
X112011626Y-112939952D01*
X112025510Y-112921232D01*
X112041162Y-112903962D01*
X112058432Y-112888310D01*
X112077152Y-112874426D01*
X112097143Y-112862444D01*
X112118213Y-112852479D01*
X112140157Y-112844627D01*
X112162766Y-112838963D01*
X112185821Y-112835544D01*
X112209100Y-112834400D01*
X112784100Y-112834400D01*
X112807379Y-112835544D01*
X112807379Y-112835544D01*
G37*
D22*
X112496600Y-113309400D03*
D21*
G36*
X147123579Y-113829544D02*
G01*
X147146634Y-113832963D01*
X147169243Y-113838627D01*
X147191187Y-113846479D01*
X147212257Y-113856444D01*
X147232248Y-113868426D01*
X147250968Y-113882310D01*
X147268238Y-113897962D01*
X147283890Y-113915232D01*
X147297774Y-113933952D01*
X147309756Y-113953943D01*
X147319721Y-113975013D01*
X147327573Y-113996957D01*
X147333237Y-114019566D01*
X147336656Y-114042621D01*
X147337800Y-114065900D01*
X147337800Y-114640900D01*
X147336656Y-114664179D01*
X147333237Y-114687234D01*
X147327573Y-114709843D01*
X147319721Y-114731787D01*
X147309756Y-114752857D01*
X147297774Y-114772848D01*
X147283890Y-114791568D01*
X147268238Y-114808838D01*
X147250968Y-114824490D01*
X147232248Y-114838374D01*
X147212257Y-114850356D01*
X147191187Y-114860321D01*
X147169243Y-114868173D01*
X147146634Y-114873837D01*
X147123579Y-114877256D01*
X147100300Y-114878400D01*
X146625300Y-114878400D01*
X146602021Y-114877256D01*
X146578966Y-114873837D01*
X146556357Y-114868173D01*
X146534413Y-114860321D01*
X146513343Y-114850356D01*
X146493352Y-114838374D01*
X146474632Y-114824490D01*
X146457362Y-114808838D01*
X146441710Y-114791568D01*
X146427826Y-114772848D01*
X146415844Y-114752857D01*
X146405879Y-114731787D01*
X146398027Y-114709843D01*
X146392363Y-114687234D01*
X146388944Y-114664179D01*
X146387800Y-114640900D01*
X146387800Y-114065900D01*
X146388944Y-114042621D01*
X146392363Y-114019566D01*
X146398027Y-113996957D01*
X146405879Y-113975013D01*
X146415844Y-113953943D01*
X146427826Y-113933952D01*
X146441710Y-113915232D01*
X146457362Y-113897962D01*
X146474632Y-113882310D01*
X146493352Y-113868426D01*
X146513343Y-113856444D01*
X146534413Y-113846479D01*
X146556357Y-113838627D01*
X146578966Y-113832963D01*
X146602021Y-113829544D01*
X146625300Y-113828400D01*
X147100300Y-113828400D01*
X147123579Y-113829544D01*
X147123579Y-113829544D01*
G37*
D22*
X146862800Y-114353400D03*
D21*
G36*
X147123579Y-115579544D02*
G01*
X147146634Y-115582963D01*
X147169243Y-115588627D01*
X147191187Y-115596479D01*
X147212257Y-115606444D01*
X147232248Y-115618426D01*
X147250968Y-115632310D01*
X147268238Y-115647962D01*
X147283890Y-115665232D01*
X147297774Y-115683952D01*
X147309756Y-115703943D01*
X147319721Y-115725013D01*
X147327573Y-115746957D01*
X147333237Y-115769566D01*
X147336656Y-115792621D01*
X147337800Y-115815900D01*
X147337800Y-116390900D01*
X147336656Y-116414179D01*
X147333237Y-116437234D01*
X147327573Y-116459843D01*
X147319721Y-116481787D01*
X147309756Y-116502857D01*
X147297774Y-116522848D01*
X147283890Y-116541568D01*
X147268238Y-116558838D01*
X147250968Y-116574490D01*
X147232248Y-116588374D01*
X147212257Y-116600356D01*
X147191187Y-116610321D01*
X147169243Y-116618173D01*
X147146634Y-116623837D01*
X147123579Y-116627256D01*
X147100300Y-116628400D01*
X146625300Y-116628400D01*
X146602021Y-116627256D01*
X146578966Y-116623837D01*
X146556357Y-116618173D01*
X146534413Y-116610321D01*
X146513343Y-116600356D01*
X146493352Y-116588374D01*
X146474632Y-116574490D01*
X146457362Y-116558838D01*
X146441710Y-116541568D01*
X146427826Y-116522848D01*
X146415844Y-116502857D01*
X146405879Y-116481787D01*
X146398027Y-116459843D01*
X146392363Y-116437234D01*
X146388944Y-116414179D01*
X146387800Y-116390900D01*
X146387800Y-115815900D01*
X146388944Y-115792621D01*
X146392363Y-115769566D01*
X146398027Y-115746957D01*
X146405879Y-115725013D01*
X146415844Y-115703943D01*
X146427826Y-115683952D01*
X146441710Y-115665232D01*
X146457362Y-115647962D01*
X146474632Y-115632310D01*
X146493352Y-115618426D01*
X146513343Y-115606444D01*
X146534413Y-115596479D01*
X146556357Y-115588627D01*
X146578966Y-115582963D01*
X146602021Y-115579544D01*
X146625300Y-115578400D01*
X147100300Y-115578400D01*
X147123579Y-115579544D01*
X147123579Y-115579544D01*
G37*
D22*
X146862800Y-116103400D03*
M02*
