G04 #@! TF.GenerationSoftware,KiCad,Pcbnew,(5.1.4)-1*
G04 #@! TF.CreationDate,2019-11-03T22:01:44+01:00*
G04 #@! TF.ProjectId,121019_breakoutBoard_cureBag_V1,31323130-3139-45f6-9272-65616b6f7574,rev?*
G04 #@! TF.SameCoordinates,Original*
G04 #@! TF.FileFunction,Soldermask,Top*
G04 #@! TF.FilePolarity,Negative*
%FSLAX46Y46*%
G04 Gerber Fmt 4.6, Leading zero omitted, Abs format (unit mm)*
G04 Created by KiCad (PCBNEW (5.1.4)-1) date 2019-11-03 22:01:44*
%MOMM*%
%LPD*%
G04 APERTURE LIST*
%ADD10C,0.020000*%
G04 APERTURE END LIST*
D10*
G36*
X126627843Y-115031119D02*
G01*
X126694027Y-115037637D01*
X126863866Y-115089157D01*
X127020391Y-115172822D01*
X127049195Y-115196461D01*
X127157586Y-115285414D01*
X127220461Y-115362029D01*
X127270178Y-115422609D01*
X127270179Y-115422611D01*
X127347354Y-115566993D01*
X127353843Y-115579134D01*
X127405363Y-115748973D01*
X127422759Y-115925600D01*
X127405363Y-116102227D01*
X127353843Y-116272066D01*
X127270178Y-116428591D01*
X127252790Y-116449778D01*
X127157586Y-116565786D01*
X127073153Y-116635077D01*
X127020391Y-116678378D01*
X126863866Y-116762043D01*
X126694027Y-116813563D01*
X126627842Y-116820082D01*
X126561660Y-116826600D01*
X126473140Y-116826600D01*
X126406958Y-116820082D01*
X126340773Y-116813563D01*
X126170934Y-116762043D01*
X126014409Y-116678378D01*
X125961647Y-116635077D01*
X125877214Y-116565786D01*
X125782010Y-116449778D01*
X125764622Y-116428591D01*
X125680957Y-116272066D01*
X125629437Y-116102227D01*
X125612041Y-115925600D01*
X125629437Y-115748973D01*
X125680957Y-115579134D01*
X125687447Y-115566993D01*
X125764621Y-115422611D01*
X125764622Y-115422609D01*
X125814339Y-115362029D01*
X125877214Y-115285414D01*
X125985605Y-115196461D01*
X126014409Y-115172822D01*
X126170934Y-115089157D01*
X126340773Y-115037637D01*
X126406957Y-115031119D01*
X126473140Y-115024600D01*
X126561660Y-115024600D01*
X126627843Y-115031119D01*
X126627843Y-115031119D01*
G37*
G36*
X145198400Y-116826600D02*
G01*
X143396400Y-116826600D01*
X143396400Y-115024600D01*
X145198400Y-115024600D01*
X145198400Y-116826600D01*
X145198400Y-116826600D01*
G37*
G36*
X141867843Y-115031119D02*
G01*
X141934027Y-115037637D01*
X142103866Y-115089157D01*
X142260391Y-115172822D01*
X142289195Y-115196461D01*
X142397586Y-115285414D01*
X142460461Y-115362029D01*
X142510178Y-115422609D01*
X142510179Y-115422611D01*
X142587354Y-115566993D01*
X142593843Y-115579134D01*
X142645363Y-115748973D01*
X142662759Y-115925600D01*
X142645363Y-116102227D01*
X142593843Y-116272066D01*
X142510178Y-116428591D01*
X142492790Y-116449778D01*
X142397586Y-116565786D01*
X142313153Y-116635077D01*
X142260391Y-116678378D01*
X142103866Y-116762043D01*
X141934027Y-116813563D01*
X141867842Y-116820082D01*
X141801660Y-116826600D01*
X141713140Y-116826600D01*
X141646958Y-116820082D01*
X141580773Y-116813563D01*
X141410934Y-116762043D01*
X141254409Y-116678378D01*
X141201647Y-116635077D01*
X141117214Y-116565786D01*
X141022010Y-116449778D01*
X141004622Y-116428591D01*
X140920957Y-116272066D01*
X140869437Y-116102227D01*
X140852041Y-115925600D01*
X140869437Y-115748973D01*
X140920957Y-115579134D01*
X140927447Y-115566993D01*
X141004621Y-115422611D01*
X141004622Y-115422609D01*
X141054339Y-115362029D01*
X141117214Y-115285414D01*
X141225605Y-115196461D01*
X141254409Y-115172822D01*
X141410934Y-115089157D01*
X141580773Y-115037637D01*
X141646957Y-115031119D01*
X141713140Y-115024600D01*
X141801660Y-115024600D01*
X141867843Y-115031119D01*
X141867843Y-115031119D01*
G37*
G36*
X139327843Y-115031119D02*
G01*
X139394027Y-115037637D01*
X139563866Y-115089157D01*
X139720391Y-115172822D01*
X139749195Y-115196461D01*
X139857586Y-115285414D01*
X139920461Y-115362029D01*
X139970178Y-115422609D01*
X139970179Y-115422611D01*
X140047354Y-115566993D01*
X140053843Y-115579134D01*
X140105363Y-115748973D01*
X140122759Y-115925600D01*
X140105363Y-116102227D01*
X140053843Y-116272066D01*
X139970178Y-116428591D01*
X139952790Y-116449778D01*
X139857586Y-116565786D01*
X139773153Y-116635077D01*
X139720391Y-116678378D01*
X139563866Y-116762043D01*
X139394027Y-116813563D01*
X139327842Y-116820082D01*
X139261660Y-116826600D01*
X139173140Y-116826600D01*
X139106958Y-116820082D01*
X139040773Y-116813563D01*
X138870934Y-116762043D01*
X138714409Y-116678378D01*
X138661647Y-116635077D01*
X138577214Y-116565786D01*
X138482010Y-116449778D01*
X138464622Y-116428591D01*
X138380957Y-116272066D01*
X138329437Y-116102227D01*
X138312041Y-115925600D01*
X138329437Y-115748973D01*
X138380957Y-115579134D01*
X138387447Y-115566993D01*
X138464621Y-115422611D01*
X138464622Y-115422609D01*
X138514339Y-115362029D01*
X138577214Y-115285414D01*
X138685605Y-115196461D01*
X138714409Y-115172822D01*
X138870934Y-115089157D01*
X139040773Y-115037637D01*
X139106957Y-115031119D01*
X139173140Y-115024600D01*
X139261660Y-115024600D01*
X139327843Y-115031119D01*
X139327843Y-115031119D01*
G37*
G36*
X136787843Y-115031119D02*
G01*
X136854027Y-115037637D01*
X137023866Y-115089157D01*
X137180391Y-115172822D01*
X137209195Y-115196461D01*
X137317586Y-115285414D01*
X137380461Y-115362029D01*
X137430178Y-115422609D01*
X137430179Y-115422611D01*
X137507354Y-115566993D01*
X137513843Y-115579134D01*
X137565363Y-115748973D01*
X137582759Y-115925600D01*
X137565363Y-116102227D01*
X137513843Y-116272066D01*
X137430178Y-116428591D01*
X137412790Y-116449778D01*
X137317586Y-116565786D01*
X137233153Y-116635077D01*
X137180391Y-116678378D01*
X137023866Y-116762043D01*
X136854027Y-116813563D01*
X136787842Y-116820082D01*
X136721660Y-116826600D01*
X136633140Y-116826600D01*
X136566958Y-116820082D01*
X136500773Y-116813563D01*
X136330934Y-116762043D01*
X136174409Y-116678378D01*
X136121647Y-116635077D01*
X136037214Y-116565786D01*
X135942010Y-116449778D01*
X135924622Y-116428591D01*
X135840957Y-116272066D01*
X135789437Y-116102227D01*
X135772041Y-115925600D01*
X135789437Y-115748973D01*
X135840957Y-115579134D01*
X135847447Y-115566993D01*
X135924621Y-115422611D01*
X135924622Y-115422609D01*
X135974339Y-115362029D01*
X136037214Y-115285414D01*
X136145605Y-115196461D01*
X136174409Y-115172822D01*
X136330934Y-115089157D01*
X136500773Y-115037637D01*
X136566957Y-115031119D01*
X136633140Y-115024600D01*
X136721660Y-115024600D01*
X136787843Y-115031119D01*
X136787843Y-115031119D01*
G37*
G36*
X131707843Y-115031119D02*
G01*
X131774027Y-115037637D01*
X131943866Y-115089157D01*
X132100391Y-115172822D01*
X132129195Y-115196461D01*
X132237586Y-115285414D01*
X132300461Y-115362029D01*
X132350178Y-115422609D01*
X132350179Y-115422611D01*
X132427354Y-115566993D01*
X132433843Y-115579134D01*
X132485363Y-115748973D01*
X132502759Y-115925600D01*
X132485363Y-116102227D01*
X132433843Y-116272066D01*
X132350178Y-116428591D01*
X132332790Y-116449778D01*
X132237586Y-116565786D01*
X132153153Y-116635077D01*
X132100391Y-116678378D01*
X131943866Y-116762043D01*
X131774027Y-116813563D01*
X131707842Y-116820082D01*
X131641660Y-116826600D01*
X131553140Y-116826600D01*
X131486958Y-116820082D01*
X131420773Y-116813563D01*
X131250934Y-116762043D01*
X131094409Y-116678378D01*
X131041647Y-116635077D01*
X130957214Y-116565786D01*
X130862010Y-116449778D01*
X130844622Y-116428591D01*
X130760957Y-116272066D01*
X130709437Y-116102227D01*
X130692041Y-115925600D01*
X130709437Y-115748973D01*
X130760957Y-115579134D01*
X130767447Y-115566993D01*
X130844621Y-115422611D01*
X130844622Y-115422609D01*
X130894339Y-115362029D01*
X130957214Y-115285414D01*
X131065605Y-115196461D01*
X131094409Y-115172822D01*
X131250934Y-115089157D01*
X131420773Y-115037637D01*
X131486957Y-115031119D01*
X131553140Y-115024600D01*
X131641660Y-115024600D01*
X131707843Y-115031119D01*
X131707843Y-115031119D01*
G37*
G36*
X134247843Y-115031119D02*
G01*
X134314027Y-115037637D01*
X134483866Y-115089157D01*
X134640391Y-115172822D01*
X134669195Y-115196461D01*
X134777586Y-115285414D01*
X134840461Y-115362029D01*
X134890178Y-115422609D01*
X134890179Y-115422611D01*
X134967354Y-115566993D01*
X134973843Y-115579134D01*
X135025363Y-115748973D01*
X135042759Y-115925600D01*
X135025363Y-116102227D01*
X134973843Y-116272066D01*
X134890178Y-116428591D01*
X134872790Y-116449778D01*
X134777586Y-116565786D01*
X134693153Y-116635077D01*
X134640391Y-116678378D01*
X134483866Y-116762043D01*
X134314027Y-116813563D01*
X134247842Y-116820082D01*
X134181660Y-116826600D01*
X134093140Y-116826600D01*
X134026958Y-116820082D01*
X133960773Y-116813563D01*
X133790934Y-116762043D01*
X133634409Y-116678378D01*
X133581647Y-116635077D01*
X133497214Y-116565786D01*
X133402010Y-116449778D01*
X133384622Y-116428591D01*
X133300957Y-116272066D01*
X133249437Y-116102227D01*
X133232041Y-115925600D01*
X133249437Y-115748973D01*
X133300957Y-115579134D01*
X133307447Y-115566993D01*
X133384621Y-115422611D01*
X133384622Y-115422609D01*
X133434339Y-115362029D01*
X133497214Y-115285414D01*
X133605605Y-115196461D01*
X133634409Y-115172822D01*
X133790934Y-115089157D01*
X133960773Y-115037637D01*
X134026957Y-115031119D01*
X134093140Y-115024600D01*
X134181660Y-115024600D01*
X134247843Y-115031119D01*
X134247843Y-115031119D01*
G37*
G36*
X129167843Y-115031119D02*
G01*
X129234027Y-115037637D01*
X129403866Y-115089157D01*
X129560391Y-115172822D01*
X129589195Y-115196461D01*
X129697586Y-115285414D01*
X129760461Y-115362029D01*
X129810178Y-115422609D01*
X129810179Y-115422611D01*
X129887354Y-115566993D01*
X129893843Y-115579134D01*
X129945363Y-115748973D01*
X129962759Y-115925600D01*
X129945363Y-116102227D01*
X129893843Y-116272066D01*
X129810178Y-116428591D01*
X129792790Y-116449778D01*
X129697586Y-116565786D01*
X129613153Y-116635077D01*
X129560391Y-116678378D01*
X129403866Y-116762043D01*
X129234027Y-116813563D01*
X129167842Y-116820082D01*
X129101660Y-116826600D01*
X129013140Y-116826600D01*
X128946958Y-116820082D01*
X128880773Y-116813563D01*
X128710934Y-116762043D01*
X128554409Y-116678378D01*
X128501647Y-116635077D01*
X128417214Y-116565786D01*
X128322010Y-116449778D01*
X128304622Y-116428591D01*
X128220957Y-116272066D01*
X128169437Y-116102227D01*
X128152041Y-115925600D01*
X128169437Y-115748973D01*
X128220957Y-115579134D01*
X128227447Y-115566993D01*
X128304621Y-115422611D01*
X128304622Y-115422609D01*
X128354339Y-115362029D01*
X128417214Y-115285414D01*
X128525605Y-115196461D01*
X128554409Y-115172822D01*
X128710934Y-115089157D01*
X128880773Y-115037637D01*
X128946957Y-115031119D01*
X129013140Y-115024600D01*
X129101660Y-115024600D01*
X129167843Y-115031119D01*
X129167843Y-115031119D01*
G37*
G36*
X147227299Y-115531845D02*
G01*
X147264795Y-115543220D01*
X147299354Y-115561692D01*
X147329647Y-115586553D01*
X147354508Y-115616846D01*
X147372980Y-115651405D01*
X147384355Y-115688901D01*
X147388800Y-115734038D01*
X147388800Y-116472762D01*
X147384355Y-116517899D01*
X147372980Y-116555395D01*
X147354508Y-116589954D01*
X147329647Y-116620247D01*
X147299354Y-116645108D01*
X147264795Y-116663580D01*
X147227299Y-116674955D01*
X147182162Y-116679400D01*
X146543438Y-116679400D01*
X146498301Y-116674955D01*
X146460805Y-116663580D01*
X146426246Y-116645108D01*
X146395953Y-116620247D01*
X146371092Y-116589954D01*
X146352620Y-116555395D01*
X146341245Y-116517899D01*
X146336800Y-116472762D01*
X146336800Y-115734038D01*
X146341245Y-115688901D01*
X146352620Y-115651405D01*
X146371092Y-115616846D01*
X146395953Y-115586553D01*
X146426246Y-115561692D01*
X146460805Y-115543220D01*
X146498301Y-115531845D01*
X146543438Y-115527400D01*
X147182162Y-115527400D01*
X147227299Y-115531845D01*
X147227299Y-115531845D01*
G37*
G36*
X115683600Y-116598000D02*
G01*
X113881600Y-116598000D01*
X113881600Y-114796000D01*
X115683600Y-114796000D01*
X115683600Y-116598000D01*
X115683600Y-116598000D01*
G37*
G36*
X109813042Y-114802518D02*
G01*
X109879227Y-114809037D01*
X110049066Y-114860557D01*
X110205591Y-114944222D01*
X110241329Y-114973552D01*
X110342786Y-115056814D01*
X110408325Y-115136675D01*
X110455378Y-115194009D01*
X110539043Y-115350534D01*
X110590563Y-115520373D01*
X110607959Y-115697000D01*
X110590563Y-115873627D01*
X110539043Y-116043466D01*
X110539042Y-116043468D01*
X110524515Y-116070646D01*
X110455378Y-116199991D01*
X110426048Y-116235729D01*
X110342786Y-116337186D01*
X110246262Y-116416400D01*
X110205591Y-116449778D01*
X110049066Y-116533443D01*
X109879227Y-116584963D01*
X109813042Y-116591482D01*
X109746860Y-116598000D01*
X109658340Y-116598000D01*
X109592158Y-116591482D01*
X109525973Y-116584963D01*
X109356134Y-116533443D01*
X109199609Y-116449778D01*
X109158938Y-116416400D01*
X109062414Y-116337186D01*
X108979152Y-116235729D01*
X108949822Y-116199991D01*
X108880685Y-116070646D01*
X108866158Y-116043468D01*
X108866157Y-116043466D01*
X108814637Y-115873627D01*
X108797241Y-115697000D01*
X108814637Y-115520373D01*
X108866157Y-115350534D01*
X108949822Y-115194009D01*
X108996875Y-115136675D01*
X109062414Y-115056814D01*
X109163871Y-114973552D01*
X109199609Y-114944222D01*
X109356134Y-114860557D01*
X109525973Y-114809037D01*
X109592158Y-114802518D01*
X109658340Y-114796000D01*
X109746860Y-114796000D01*
X109813042Y-114802518D01*
X109813042Y-114802518D01*
G37*
G36*
X107273042Y-114802518D02*
G01*
X107339227Y-114809037D01*
X107509066Y-114860557D01*
X107665591Y-114944222D01*
X107701329Y-114973552D01*
X107802786Y-115056814D01*
X107868325Y-115136675D01*
X107915378Y-115194009D01*
X107999043Y-115350534D01*
X108050563Y-115520373D01*
X108067959Y-115697000D01*
X108050563Y-115873627D01*
X107999043Y-116043466D01*
X107999042Y-116043468D01*
X107984515Y-116070646D01*
X107915378Y-116199991D01*
X107886048Y-116235729D01*
X107802786Y-116337186D01*
X107706262Y-116416400D01*
X107665591Y-116449778D01*
X107509066Y-116533443D01*
X107339227Y-116584963D01*
X107273042Y-116591482D01*
X107206860Y-116598000D01*
X107118340Y-116598000D01*
X107052158Y-116591482D01*
X106985973Y-116584963D01*
X106816134Y-116533443D01*
X106659609Y-116449778D01*
X106618938Y-116416400D01*
X106522414Y-116337186D01*
X106439152Y-116235729D01*
X106409822Y-116199991D01*
X106340685Y-116070646D01*
X106326158Y-116043468D01*
X106326157Y-116043466D01*
X106274637Y-115873627D01*
X106257241Y-115697000D01*
X106274637Y-115520373D01*
X106326157Y-115350534D01*
X106409822Y-115194009D01*
X106456875Y-115136675D01*
X106522414Y-115056814D01*
X106623871Y-114973552D01*
X106659609Y-114944222D01*
X106816134Y-114860557D01*
X106985973Y-114809037D01*
X107052158Y-114802518D01*
X107118340Y-114796000D01*
X107206860Y-114796000D01*
X107273042Y-114802518D01*
X107273042Y-114802518D01*
G37*
G36*
X104733042Y-114802518D02*
G01*
X104799227Y-114809037D01*
X104969066Y-114860557D01*
X105125591Y-114944222D01*
X105161329Y-114973552D01*
X105262786Y-115056814D01*
X105328325Y-115136675D01*
X105375378Y-115194009D01*
X105459043Y-115350534D01*
X105510563Y-115520373D01*
X105527959Y-115697000D01*
X105510563Y-115873627D01*
X105459043Y-116043466D01*
X105459042Y-116043468D01*
X105444515Y-116070646D01*
X105375378Y-116199991D01*
X105346048Y-116235729D01*
X105262786Y-116337186D01*
X105166262Y-116416400D01*
X105125591Y-116449778D01*
X104969066Y-116533443D01*
X104799227Y-116584963D01*
X104733042Y-116591482D01*
X104666860Y-116598000D01*
X104578340Y-116598000D01*
X104512158Y-116591482D01*
X104445973Y-116584963D01*
X104276134Y-116533443D01*
X104119609Y-116449778D01*
X104078938Y-116416400D01*
X103982414Y-116337186D01*
X103899152Y-116235729D01*
X103869822Y-116199991D01*
X103800685Y-116070646D01*
X103786158Y-116043468D01*
X103786157Y-116043466D01*
X103734637Y-115873627D01*
X103717241Y-115697000D01*
X103734637Y-115520373D01*
X103786157Y-115350534D01*
X103869822Y-115194009D01*
X103916875Y-115136675D01*
X103982414Y-115056814D01*
X104083871Y-114973552D01*
X104119609Y-114944222D01*
X104276134Y-114860557D01*
X104445973Y-114809037D01*
X104512158Y-114802518D01*
X104578340Y-114796000D01*
X104666860Y-114796000D01*
X104733042Y-114802518D01*
X104733042Y-114802518D01*
G37*
G36*
X102193042Y-114802518D02*
G01*
X102259227Y-114809037D01*
X102429066Y-114860557D01*
X102585591Y-114944222D01*
X102621329Y-114973552D01*
X102722786Y-115056814D01*
X102788325Y-115136675D01*
X102835378Y-115194009D01*
X102919043Y-115350534D01*
X102970563Y-115520373D01*
X102987959Y-115697000D01*
X102970563Y-115873627D01*
X102919043Y-116043466D01*
X102919042Y-116043468D01*
X102904515Y-116070646D01*
X102835378Y-116199991D01*
X102806048Y-116235729D01*
X102722786Y-116337186D01*
X102626262Y-116416400D01*
X102585591Y-116449778D01*
X102429066Y-116533443D01*
X102259227Y-116584963D01*
X102193042Y-116591482D01*
X102126860Y-116598000D01*
X102038340Y-116598000D01*
X101972158Y-116591482D01*
X101905973Y-116584963D01*
X101736134Y-116533443D01*
X101579609Y-116449778D01*
X101538938Y-116416400D01*
X101442414Y-116337186D01*
X101359152Y-116235729D01*
X101329822Y-116199991D01*
X101260685Y-116070646D01*
X101246158Y-116043468D01*
X101246157Y-116043466D01*
X101194637Y-115873627D01*
X101177241Y-115697000D01*
X101194637Y-115520373D01*
X101246157Y-115350534D01*
X101329822Y-115194009D01*
X101376875Y-115136675D01*
X101442414Y-115056814D01*
X101543871Y-114973552D01*
X101579609Y-114944222D01*
X101736134Y-114860557D01*
X101905973Y-114809037D01*
X101972158Y-114802518D01*
X102038340Y-114796000D01*
X102126860Y-114796000D01*
X102193042Y-114802518D01*
X102193042Y-114802518D01*
G37*
G36*
X112353042Y-114802518D02*
G01*
X112419227Y-114809037D01*
X112589066Y-114860557D01*
X112745591Y-114944222D01*
X112781329Y-114973552D01*
X112882786Y-115056814D01*
X112948325Y-115136675D01*
X112995378Y-115194009D01*
X113079043Y-115350534D01*
X113130563Y-115520373D01*
X113147959Y-115697000D01*
X113130563Y-115873627D01*
X113079043Y-116043466D01*
X113079042Y-116043468D01*
X113064515Y-116070646D01*
X112995378Y-116199991D01*
X112966048Y-116235729D01*
X112882786Y-116337186D01*
X112786262Y-116416400D01*
X112745591Y-116449778D01*
X112589066Y-116533443D01*
X112419227Y-116584963D01*
X112353042Y-116591482D01*
X112286860Y-116598000D01*
X112198340Y-116598000D01*
X112132158Y-116591482D01*
X112065973Y-116584963D01*
X111896134Y-116533443D01*
X111739609Y-116449778D01*
X111698938Y-116416400D01*
X111602414Y-116337186D01*
X111519152Y-116235729D01*
X111489822Y-116199991D01*
X111420685Y-116070646D01*
X111406158Y-116043468D01*
X111406157Y-116043466D01*
X111354637Y-115873627D01*
X111337241Y-115697000D01*
X111354637Y-115520373D01*
X111406157Y-115350534D01*
X111489822Y-115194009D01*
X111536875Y-115136675D01*
X111602414Y-115056814D01*
X111703871Y-114973552D01*
X111739609Y-114944222D01*
X111896134Y-114860557D01*
X112065973Y-114809037D01*
X112132158Y-114802518D01*
X112198340Y-114796000D01*
X112286860Y-114796000D01*
X112353042Y-114802518D01*
X112353042Y-114802518D01*
G37*
G36*
X150017378Y-115186597D02*
G01*
X150070150Y-115197094D01*
X150169570Y-115238275D01*
X150259046Y-115298061D01*
X150335139Y-115374154D01*
X150394925Y-115463630D01*
X150436106Y-115563050D01*
X150437831Y-115571723D01*
X150457100Y-115668593D01*
X150457100Y-115776207D01*
X150454277Y-115790400D01*
X150436106Y-115881750D01*
X150394925Y-115981170D01*
X150335139Y-116070646D01*
X150259046Y-116146739D01*
X150169570Y-116206525D01*
X150070150Y-116247706D01*
X150017378Y-116258203D01*
X149964607Y-116268700D01*
X149856993Y-116268700D01*
X149804222Y-116258203D01*
X149751450Y-116247706D01*
X149652030Y-116206525D01*
X149562554Y-116146739D01*
X149486461Y-116070646D01*
X149426675Y-115981170D01*
X149385494Y-115881750D01*
X149367323Y-115790400D01*
X149364500Y-115776207D01*
X149364500Y-115668593D01*
X149383769Y-115571723D01*
X149385494Y-115563050D01*
X149426675Y-115463630D01*
X149486461Y-115374154D01*
X149562554Y-115298061D01*
X149652030Y-115238275D01*
X149751450Y-115197094D01*
X149804222Y-115186597D01*
X149856993Y-115176100D01*
X149964607Y-115176100D01*
X150017378Y-115186597D01*
X150017378Y-115186597D01*
G37*
G36*
X119410378Y-115084997D02*
G01*
X119463150Y-115095494D01*
X119562570Y-115136675D01*
X119652046Y-115196461D01*
X119728139Y-115272554D01*
X119787925Y-115362030D01*
X119829106Y-115461450D01*
X119839603Y-115514222D01*
X119849316Y-115563050D01*
X119850100Y-115566994D01*
X119850100Y-115674606D01*
X119829106Y-115780150D01*
X119787925Y-115879570D01*
X119728139Y-115969046D01*
X119652046Y-116045139D01*
X119562570Y-116104925D01*
X119463150Y-116146106D01*
X119410378Y-116156603D01*
X119357607Y-116167100D01*
X119249993Y-116167100D01*
X119197222Y-116156603D01*
X119144450Y-116146106D01*
X119045030Y-116104925D01*
X118955554Y-116045139D01*
X118879461Y-115969046D01*
X118819675Y-115879570D01*
X118778494Y-115780150D01*
X118757500Y-115674606D01*
X118757500Y-115566994D01*
X118758285Y-115563050D01*
X118767997Y-115514222D01*
X118778494Y-115461450D01*
X118819675Y-115362030D01*
X118879461Y-115272554D01*
X118955554Y-115196461D01*
X119045030Y-115136675D01*
X119144450Y-115095494D01*
X119197222Y-115084997D01*
X119249993Y-115074500D01*
X119357607Y-115074500D01*
X119410378Y-115084997D01*
X119410378Y-115084997D01*
G37*
G36*
X147227299Y-113781845D02*
G01*
X147264795Y-113793220D01*
X147299354Y-113811692D01*
X147329647Y-113836553D01*
X147354508Y-113866846D01*
X147372980Y-113901405D01*
X147384355Y-113938901D01*
X147388800Y-113984038D01*
X147388800Y-114722762D01*
X147384355Y-114767899D01*
X147372980Y-114805395D01*
X147354508Y-114839954D01*
X147329647Y-114870247D01*
X147299354Y-114895108D01*
X147264795Y-114913580D01*
X147227299Y-114924955D01*
X147182162Y-114929400D01*
X146543438Y-114929400D01*
X146498301Y-114924955D01*
X146460805Y-114913580D01*
X146426246Y-114895108D01*
X146395953Y-114870247D01*
X146371092Y-114839954D01*
X146352620Y-114805395D01*
X146341245Y-114767899D01*
X146336800Y-114722762D01*
X146336800Y-113984038D01*
X146341245Y-113938901D01*
X146352620Y-113901405D01*
X146371092Y-113866846D01*
X146395953Y-113836553D01*
X146426246Y-113811692D01*
X146460805Y-113793220D01*
X146498301Y-113781845D01*
X146543438Y-113777400D01*
X147182162Y-113777400D01*
X147227299Y-113781845D01*
X147227299Y-113781845D01*
G37*
G36*
X150675514Y-114024789D02*
G01*
X150713572Y-114040553D01*
X150756445Y-114058312D01*
X150829280Y-114106979D01*
X150891221Y-114168920D01*
X150921970Y-114214939D01*
X150939889Y-114241757D01*
X150973411Y-114322686D01*
X150987716Y-114394601D01*
X150990500Y-114408601D01*
X150990500Y-114496199D01*
X150973411Y-114582114D01*
X150939888Y-114663045D01*
X150891221Y-114735880D01*
X150829280Y-114797821D01*
X150756445Y-114846488D01*
X150756444Y-114846489D01*
X150756443Y-114846489D01*
X150675514Y-114880011D01*
X150589601Y-114897100D01*
X150501999Y-114897100D01*
X150416086Y-114880011D01*
X150335157Y-114846489D01*
X150335156Y-114846489D01*
X150335155Y-114846488D01*
X150262320Y-114797821D01*
X150200379Y-114735880D01*
X150151712Y-114663045D01*
X150118189Y-114582114D01*
X150101100Y-114496199D01*
X150101100Y-114408601D01*
X150103885Y-114394601D01*
X150118189Y-114322686D01*
X150151711Y-114241757D01*
X150169630Y-114214939D01*
X150200379Y-114168920D01*
X150262320Y-114106979D01*
X150335155Y-114058312D01*
X150378029Y-114040553D01*
X150416086Y-114024789D01*
X150501999Y-114007700D01*
X150589601Y-114007700D01*
X150675514Y-114024789D01*
X150675514Y-114024789D01*
G37*
G36*
X149405514Y-114024789D02*
G01*
X149443572Y-114040553D01*
X149486445Y-114058312D01*
X149559280Y-114106979D01*
X149621221Y-114168920D01*
X149651970Y-114214939D01*
X149669889Y-114241757D01*
X149703411Y-114322686D01*
X149717716Y-114394601D01*
X149720500Y-114408601D01*
X149720500Y-114496199D01*
X149703411Y-114582114D01*
X149669888Y-114663045D01*
X149621221Y-114735880D01*
X149559280Y-114797821D01*
X149486445Y-114846488D01*
X149486444Y-114846489D01*
X149486443Y-114846489D01*
X149405514Y-114880011D01*
X149319601Y-114897100D01*
X149231999Y-114897100D01*
X149146086Y-114880011D01*
X149065157Y-114846489D01*
X149065156Y-114846489D01*
X149065155Y-114846488D01*
X148992320Y-114797821D01*
X148930379Y-114735880D01*
X148881712Y-114663045D01*
X148848189Y-114582114D01*
X148831100Y-114496199D01*
X148831100Y-114408601D01*
X148833885Y-114394601D01*
X148848189Y-114322686D01*
X148881711Y-114241757D01*
X148899630Y-114214939D01*
X148930379Y-114168920D01*
X148992320Y-114106979D01*
X149065155Y-114058312D01*
X149108029Y-114040553D01*
X149146086Y-114024789D01*
X149231999Y-114007700D01*
X149319601Y-114007700D01*
X149405514Y-114024789D01*
X149405514Y-114024789D01*
G37*
G36*
X120068514Y-113923189D02*
G01*
X120149445Y-113956712D01*
X120222280Y-114005379D01*
X120284221Y-114067320D01*
X120310720Y-114106979D01*
X120332889Y-114140157D01*
X120366411Y-114221086D01*
X120383500Y-114306999D01*
X120383500Y-114394601D01*
X120380715Y-114408601D01*
X120366411Y-114480514D01*
X120332888Y-114561445D01*
X120284221Y-114634280D01*
X120222280Y-114696221D01*
X120149445Y-114744888D01*
X120149444Y-114744889D01*
X120149443Y-114744889D01*
X120068514Y-114778411D01*
X119982601Y-114795500D01*
X119894999Y-114795500D01*
X119809086Y-114778411D01*
X119728157Y-114744889D01*
X119728156Y-114744889D01*
X119728155Y-114744888D01*
X119655320Y-114696221D01*
X119593379Y-114634280D01*
X119544712Y-114561445D01*
X119511189Y-114480514D01*
X119496885Y-114408601D01*
X119494100Y-114394601D01*
X119494100Y-114306999D01*
X119511189Y-114221086D01*
X119544711Y-114140157D01*
X119566880Y-114106979D01*
X119593379Y-114067320D01*
X119655320Y-114005379D01*
X119728155Y-113956712D01*
X119809086Y-113923189D01*
X119894999Y-113906100D01*
X119982601Y-113906100D01*
X120068514Y-113923189D01*
X120068514Y-113923189D01*
G37*
G36*
X118798514Y-113923189D02*
G01*
X118879445Y-113956712D01*
X118952280Y-114005379D01*
X119014221Y-114067320D01*
X119040720Y-114106979D01*
X119062889Y-114140157D01*
X119096411Y-114221086D01*
X119113500Y-114306999D01*
X119113500Y-114394601D01*
X119110715Y-114408601D01*
X119096411Y-114480514D01*
X119062888Y-114561445D01*
X119014221Y-114634280D01*
X118952280Y-114696221D01*
X118879445Y-114744888D01*
X118879444Y-114744889D01*
X118879443Y-114744889D01*
X118798514Y-114778411D01*
X118712601Y-114795500D01*
X118624999Y-114795500D01*
X118539086Y-114778411D01*
X118458157Y-114744889D01*
X118458156Y-114744889D01*
X118458155Y-114744888D01*
X118385320Y-114696221D01*
X118323379Y-114634280D01*
X118274712Y-114561445D01*
X118241189Y-114480514D01*
X118226885Y-114408601D01*
X118224100Y-114394601D01*
X118224100Y-114306999D01*
X118241189Y-114221086D01*
X118274711Y-114140157D01*
X118296880Y-114106979D01*
X118323379Y-114067320D01*
X118385320Y-114005379D01*
X118458155Y-113956712D01*
X118539086Y-113923189D01*
X118624999Y-113906100D01*
X118712601Y-113906100D01*
X118798514Y-113923189D01*
X118798514Y-113923189D01*
G37*
G36*
X123417087Y-112134596D02*
G01*
X123653853Y-112232668D01*
X123653855Y-112232669D01*
X123866939Y-112375047D01*
X124048153Y-112556261D01*
X124169387Y-112737700D01*
X124190532Y-112769347D01*
X124288604Y-113006113D01*
X124338600Y-113257461D01*
X124338600Y-113513739D01*
X124288604Y-113765087D01*
X124216254Y-113939754D01*
X124190531Y-114001855D01*
X124048153Y-114214939D01*
X123866939Y-114396153D01*
X123653855Y-114538531D01*
X123653854Y-114538532D01*
X123653853Y-114538532D01*
X123417087Y-114636604D01*
X123165739Y-114686600D01*
X122909461Y-114686600D01*
X122658113Y-114636604D01*
X122421347Y-114538532D01*
X122421346Y-114538532D01*
X122421345Y-114538531D01*
X122208261Y-114396153D01*
X122027047Y-114214939D01*
X121884669Y-114001855D01*
X121858946Y-113939754D01*
X121786596Y-113765087D01*
X121736600Y-113513739D01*
X121736600Y-113257461D01*
X121786596Y-113006113D01*
X121884668Y-112769347D01*
X121905814Y-112737700D01*
X122027047Y-112556261D01*
X122208261Y-112375047D01*
X122421345Y-112232669D01*
X122421347Y-112232668D01*
X122658113Y-112134596D01*
X122909461Y-112084600D01*
X123165739Y-112084600D01*
X123417087Y-112134596D01*
X123417087Y-112134596D01*
G37*
G36*
X144318600Y-114343000D02*
G01*
X141066600Y-114343000D01*
X141066600Y-113241000D01*
X144318600Y-113241000D01*
X144318600Y-114343000D01*
X144318600Y-114343000D01*
G37*
G36*
X139268600Y-114343000D02*
G01*
X136016600Y-114343000D01*
X136016600Y-113241000D01*
X139268600Y-113241000D01*
X139268600Y-114343000D01*
X139268600Y-114343000D01*
G37*
G36*
X157534487Y-111778996D02*
G01*
X157771253Y-111877068D01*
X157771255Y-111877069D01*
X157984339Y-112019447D01*
X158165553Y-112200661D01*
X158258664Y-112340011D01*
X158307932Y-112413747D01*
X158406004Y-112650513D01*
X158456000Y-112901861D01*
X158456000Y-113158139D01*
X158406004Y-113409487D01*
X158336829Y-113576489D01*
X158307931Y-113646255D01*
X158165553Y-113859339D01*
X157984339Y-114040553D01*
X157771255Y-114182931D01*
X157771254Y-114182932D01*
X157771253Y-114182932D01*
X157534487Y-114281004D01*
X157283139Y-114331000D01*
X157026861Y-114331000D01*
X156775513Y-114281004D01*
X156538747Y-114182932D01*
X156538746Y-114182932D01*
X156538745Y-114182931D01*
X156325661Y-114040553D01*
X156144447Y-113859339D01*
X156002069Y-113646255D01*
X155973171Y-113576489D01*
X155903996Y-113409487D01*
X155854000Y-113158139D01*
X155854000Y-112901861D01*
X155903996Y-112650513D01*
X156002068Y-112413747D01*
X156051337Y-112340011D01*
X156144447Y-112200661D01*
X156325661Y-112019447D01*
X156538745Y-111877069D01*
X156538747Y-111877068D01*
X156775513Y-111778996D01*
X157026861Y-111729000D01*
X157283139Y-111729000D01*
X157534487Y-111778996D01*
X157534487Y-111778996D01*
G37*
G36*
X114661099Y-112787845D02*
G01*
X114698595Y-112799220D01*
X114733154Y-112817692D01*
X114763447Y-112842553D01*
X114788308Y-112872846D01*
X114806780Y-112907405D01*
X114818155Y-112944901D01*
X114822600Y-112990038D01*
X114822600Y-113628762D01*
X114818155Y-113673899D01*
X114806780Y-113711395D01*
X114788308Y-113745954D01*
X114763447Y-113776247D01*
X114733154Y-113801108D01*
X114698595Y-113819580D01*
X114661099Y-113830955D01*
X114615962Y-113835400D01*
X113877238Y-113835400D01*
X113832101Y-113830955D01*
X113794605Y-113819580D01*
X113760046Y-113801108D01*
X113729753Y-113776247D01*
X113704892Y-113745954D01*
X113686420Y-113711395D01*
X113675045Y-113673899D01*
X113670600Y-113628762D01*
X113670600Y-112990038D01*
X113675045Y-112944901D01*
X113686420Y-112907405D01*
X113704892Y-112872846D01*
X113729753Y-112842553D01*
X113760046Y-112817692D01*
X113794605Y-112799220D01*
X113832101Y-112787845D01*
X113877238Y-112783400D01*
X114615962Y-112783400D01*
X114661099Y-112787845D01*
X114661099Y-112787845D01*
G37*
G36*
X112911099Y-112787845D02*
G01*
X112948595Y-112799220D01*
X112983154Y-112817692D01*
X113013447Y-112842553D01*
X113038308Y-112872846D01*
X113056780Y-112907405D01*
X113068155Y-112944901D01*
X113072600Y-112990038D01*
X113072600Y-113628762D01*
X113068155Y-113673899D01*
X113056780Y-113711395D01*
X113038308Y-113745954D01*
X113013447Y-113776247D01*
X112983154Y-113801108D01*
X112948595Y-113819580D01*
X112911099Y-113830955D01*
X112865962Y-113835400D01*
X112127238Y-113835400D01*
X112082101Y-113830955D01*
X112044605Y-113819580D01*
X112010046Y-113801108D01*
X111979753Y-113776247D01*
X111954892Y-113745954D01*
X111936420Y-113711395D01*
X111925045Y-113673899D01*
X111920600Y-113628762D01*
X111920600Y-112990038D01*
X111925045Y-112944901D01*
X111936420Y-112907405D01*
X111954892Y-112872846D01*
X111979753Y-112842553D01*
X112010046Y-112817692D01*
X112044605Y-112799220D01*
X112082101Y-112787845D01*
X112127238Y-112783400D01*
X112865962Y-112783400D01*
X112911099Y-112787845D01*
X112911099Y-112787845D01*
G37*
G36*
X103460800Y-113708000D02*
G01*
X100848800Y-113708000D01*
X100848800Y-112606000D01*
X103460800Y-112606000D01*
X103460800Y-113708000D01*
X103460800Y-113708000D01*
G37*
G36*
X150675514Y-112754789D02*
G01*
X150744587Y-112783400D01*
X150756445Y-112788312D01*
X150829280Y-112836979D01*
X150891221Y-112898920D01*
X150926077Y-112951086D01*
X150939889Y-112971757D01*
X150973411Y-113052686D01*
X150990500Y-113138599D01*
X150990500Y-113226201D01*
X150977523Y-113291443D01*
X150973411Y-113312114D01*
X150939888Y-113393045D01*
X150891221Y-113465880D01*
X150829280Y-113527821D01*
X150756445Y-113576488D01*
X150756444Y-113576489D01*
X150756443Y-113576489D01*
X150675514Y-113610011D01*
X150589601Y-113627100D01*
X150501999Y-113627100D01*
X150416086Y-113610011D01*
X150335157Y-113576489D01*
X150335156Y-113576489D01*
X150335155Y-113576488D01*
X150262320Y-113527821D01*
X150200379Y-113465880D01*
X150151712Y-113393045D01*
X150118189Y-113312114D01*
X150114077Y-113291443D01*
X150101100Y-113226201D01*
X150101100Y-113138599D01*
X150118189Y-113052686D01*
X150151711Y-112971757D01*
X150165523Y-112951086D01*
X150200379Y-112898920D01*
X150262320Y-112836979D01*
X150335155Y-112788312D01*
X150347014Y-112783400D01*
X150416086Y-112754789D01*
X150501999Y-112737700D01*
X150589601Y-112737700D01*
X150675514Y-112754789D01*
X150675514Y-112754789D01*
G37*
G36*
X149405514Y-112754789D02*
G01*
X149474587Y-112783400D01*
X149486445Y-112788312D01*
X149559280Y-112836979D01*
X149621221Y-112898920D01*
X149656077Y-112951086D01*
X149669889Y-112971757D01*
X149703411Y-113052686D01*
X149720500Y-113138599D01*
X149720500Y-113226201D01*
X149707523Y-113291443D01*
X149703411Y-113312114D01*
X149669888Y-113393045D01*
X149621221Y-113465880D01*
X149559280Y-113527821D01*
X149486445Y-113576488D01*
X149486444Y-113576489D01*
X149486443Y-113576489D01*
X149405514Y-113610011D01*
X149319601Y-113627100D01*
X149231999Y-113627100D01*
X149146086Y-113610011D01*
X149065157Y-113576489D01*
X149065156Y-113576489D01*
X149065155Y-113576488D01*
X148992320Y-113527821D01*
X148930379Y-113465880D01*
X148881712Y-113393045D01*
X148848189Y-113312114D01*
X148844077Y-113291443D01*
X148831100Y-113226201D01*
X148831100Y-113138599D01*
X148848189Y-113052686D01*
X148881711Y-112971757D01*
X148895523Y-112951086D01*
X148930379Y-112898920D01*
X148992320Y-112836979D01*
X149065155Y-112788312D01*
X149077014Y-112783400D01*
X149146086Y-112754789D01*
X149231999Y-112737700D01*
X149319601Y-112737700D01*
X149405514Y-112754789D01*
X149405514Y-112754789D01*
G37*
G36*
X120068514Y-112653189D02*
G01*
X120149445Y-112686712D01*
X120222280Y-112735379D01*
X120284221Y-112797320D01*
X120332888Y-112870155D01*
X120332889Y-112870157D01*
X120366411Y-112951086D01*
X120383500Y-113036999D01*
X120383500Y-113124601D01*
X120380715Y-113138601D01*
X120366411Y-113210514D01*
X120332888Y-113291445D01*
X120284221Y-113364280D01*
X120222280Y-113426221D01*
X120149445Y-113474888D01*
X120149444Y-113474889D01*
X120149443Y-113474889D01*
X120068514Y-113508411D01*
X119982601Y-113525500D01*
X119894999Y-113525500D01*
X119809086Y-113508411D01*
X119728157Y-113474889D01*
X119728156Y-113474889D01*
X119728155Y-113474888D01*
X119655320Y-113426221D01*
X119593379Y-113364280D01*
X119544712Y-113291445D01*
X119511189Y-113210514D01*
X119496885Y-113138601D01*
X119494100Y-113124601D01*
X119494100Y-113036999D01*
X119511189Y-112951086D01*
X119544711Y-112870157D01*
X119544712Y-112870155D01*
X119593379Y-112797320D01*
X119655320Y-112735379D01*
X119728155Y-112686712D01*
X119809086Y-112653189D01*
X119894999Y-112636100D01*
X119982601Y-112636100D01*
X120068514Y-112653189D01*
X120068514Y-112653189D01*
G37*
G36*
X118798514Y-112653189D02*
G01*
X118879445Y-112686712D01*
X118952280Y-112735379D01*
X119014221Y-112797320D01*
X119062888Y-112870155D01*
X119062889Y-112870157D01*
X119096411Y-112951086D01*
X119113500Y-113036999D01*
X119113500Y-113124601D01*
X119110715Y-113138601D01*
X119096411Y-113210514D01*
X119062888Y-113291445D01*
X119014221Y-113364280D01*
X118952280Y-113426221D01*
X118879445Y-113474888D01*
X118879444Y-113474889D01*
X118879443Y-113474889D01*
X118798514Y-113508411D01*
X118712601Y-113525500D01*
X118624999Y-113525500D01*
X118539086Y-113508411D01*
X118458157Y-113474889D01*
X118458156Y-113474889D01*
X118458155Y-113474888D01*
X118385320Y-113426221D01*
X118323379Y-113364280D01*
X118274712Y-113291445D01*
X118241189Y-113210514D01*
X118226885Y-113138601D01*
X118224100Y-113124601D01*
X118224100Y-113036999D01*
X118241189Y-112951086D01*
X118274711Y-112870157D01*
X118274712Y-112870155D01*
X118323379Y-112797320D01*
X118385320Y-112735379D01*
X118458155Y-112686712D01*
X118539086Y-112653189D01*
X118624999Y-112636100D01*
X118712601Y-112636100D01*
X118798514Y-112653189D01*
X118798514Y-112653189D01*
G37*
G36*
X149405514Y-111484789D02*
G01*
X149486445Y-111518312D01*
X149559280Y-111566979D01*
X149621221Y-111628920D01*
X149621222Y-111628922D01*
X149669889Y-111701757D01*
X149703411Y-111782686D01*
X149717716Y-111854601D01*
X149720500Y-111868601D01*
X149720500Y-111956199D01*
X149703411Y-112042114D01*
X149669888Y-112123045D01*
X149621221Y-112195880D01*
X149559280Y-112257821D01*
X149486445Y-112306488D01*
X149486444Y-112306489D01*
X149486443Y-112306489D01*
X149405514Y-112340011D01*
X149319601Y-112357100D01*
X149231999Y-112357100D01*
X149146086Y-112340011D01*
X149065157Y-112306489D01*
X149065156Y-112306489D01*
X149065155Y-112306488D01*
X148992320Y-112257821D01*
X148930379Y-112195880D01*
X148881712Y-112123045D01*
X148848189Y-112042114D01*
X148831100Y-111956199D01*
X148831100Y-111868601D01*
X148833885Y-111854601D01*
X148848189Y-111782686D01*
X148881711Y-111701757D01*
X148930378Y-111628922D01*
X148930379Y-111628920D01*
X148992320Y-111566979D01*
X149065155Y-111518312D01*
X149146086Y-111484789D01*
X149231999Y-111467700D01*
X149319601Y-111467700D01*
X149405514Y-111484789D01*
X149405514Y-111484789D01*
G37*
G36*
X150675514Y-111484789D02*
G01*
X150756445Y-111518312D01*
X150829280Y-111566979D01*
X150891221Y-111628920D01*
X150891222Y-111628922D01*
X150939889Y-111701757D01*
X150973411Y-111782686D01*
X150987716Y-111854601D01*
X150990500Y-111868601D01*
X150990500Y-111956199D01*
X150973411Y-112042114D01*
X150939888Y-112123045D01*
X150891221Y-112195880D01*
X150829280Y-112257821D01*
X150756445Y-112306488D01*
X150756444Y-112306489D01*
X150756443Y-112306489D01*
X150675514Y-112340011D01*
X150589601Y-112357100D01*
X150501999Y-112357100D01*
X150416086Y-112340011D01*
X150335157Y-112306489D01*
X150335156Y-112306489D01*
X150335155Y-112306488D01*
X150262320Y-112257821D01*
X150200379Y-112195880D01*
X150151712Y-112123045D01*
X150118189Y-112042114D01*
X150101100Y-111956199D01*
X150101100Y-111868601D01*
X150103885Y-111854601D01*
X150118189Y-111782686D01*
X150151711Y-111701757D01*
X150200378Y-111628922D01*
X150200379Y-111628920D01*
X150262320Y-111566979D01*
X150335155Y-111518312D01*
X150416086Y-111484789D01*
X150501999Y-111467700D01*
X150589601Y-111467700D01*
X150675514Y-111484789D01*
X150675514Y-111484789D01*
G37*
G36*
X120068514Y-111383189D02*
G01*
X120149445Y-111416712D01*
X120222280Y-111465379D01*
X120284221Y-111527320D01*
X120310720Y-111566979D01*
X120332889Y-111600157D01*
X120366411Y-111681086D01*
X120383500Y-111766999D01*
X120383500Y-111854601D01*
X120380715Y-111868601D01*
X120366411Y-111940514D01*
X120332888Y-112021445D01*
X120284221Y-112094280D01*
X120222280Y-112156221D01*
X120149445Y-112204888D01*
X120149444Y-112204889D01*
X120149443Y-112204889D01*
X120068514Y-112238411D01*
X119982601Y-112255500D01*
X119894999Y-112255500D01*
X119809086Y-112238411D01*
X119728157Y-112204889D01*
X119728156Y-112204889D01*
X119728155Y-112204888D01*
X119655320Y-112156221D01*
X119593379Y-112094280D01*
X119544712Y-112021445D01*
X119511189Y-111940514D01*
X119496885Y-111868601D01*
X119494100Y-111854601D01*
X119494100Y-111766999D01*
X119511189Y-111681086D01*
X119544711Y-111600157D01*
X119566880Y-111566979D01*
X119593379Y-111527320D01*
X119655320Y-111465379D01*
X119728155Y-111416712D01*
X119809086Y-111383189D01*
X119894999Y-111366100D01*
X119982601Y-111366100D01*
X120068514Y-111383189D01*
X120068514Y-111383189D01*
G37*
G36*
X118798514Y-111383189D02*
G01*
X118879445Y-111416712D01*
X118952280Y-111465379D01*
X119014221Y-111527320D01*
X119040720Y-111566979D01*
X119062889Y-111600157D01*
X119096411Y-111681086D01*
X119113500Y-111766999D01*
X119113500Y-111854601D01*
X119110715Y-111868601D01*
X119096411Y-111940514D01*
X119062888Y-112021445D01*
X119014221Y-112094280D01*
X118952280Y-112156221D01*
X118879445Y-112204888D01*
X118879444Y-112204889D01*
X118879443Y-112204889D01*
X118798514Y-112238411D01*
X118712601Y-112255500D01*
X118624999Y-112255500D01*
X118539086Y-112238411D01*
X118458157Y-112204889D01*
X118458156Y-112204889D01*
X118458155Y-112204888D01*
X118385320Y-112156221D01*
X118323379Y-112094280D01*
X118274712Y-112021445D01*
X118241189Y-111940514D01*
X118226885Y-111868601D01*
X118224100Y-111854601D01*
X118224100Y-111766999D01*
X118241189Y-111681086D01*
X118274711Y-111600157D01*
X118296880Y-111566979D01*
X118323379Y-111527320D01*
X118385320Y-111465379D01*
X118458155Y-111416712D01*
X118539086Y-111383189D01*
X118624999Y-111366100D01*
X118712601Y-111366100D01*
X118798514Y-111383189D01*
X118798514Y-111383189D01*
G37*
G36*
X144318600Y-111803000D02*
G01*
X141066600Y-111803000D01*
X141066600Y-110701000D01*
X144318600Y-110701000D01*
X144318600Y-111803000D01*
X144318600Y-111803000D01*
G37*
G36*
X139268600Y-111803000D02*
G01*
X136016600Y-111803000D01*
X136016600Y-110701000D01*
X139268600Y-110701000D01*
X139268600Y-111803000D01*
X139268600Y-111803000D01*
G37*
G36*
X149001378Y-110106597D02*
G01*
X149054150Y-110117094D01*
X149153570Y-110158275D01*
X149243046Y-110218061D01*
X149319139Y-110294154D01*
X149378925Y-110383630D01*
X149420106Y-110483050D01*
X149430603Y-110535822D01*
X149441100Y-110588593D01*
X149441100Y-110696207D01*
X149430603Y-110748978D01*
X149420106Y-110801750D01*
X149378925Y-110901170D01*
X149319139Y-110990646D01*
X149243046Y-111066739D01*
X149153570Y-111126525D01*
X149054150Y-111167706D01*
X149001378Y-111178203D01*
X148948607Y-111188700D01*
X148840993Y-111188700D01*
X148788222Y-111178203D01*
X148735450Y-111167706D01*
X148636030Y-111126525D01*
X148546554Y-111066739D01*
X148470461Y-110990646D01*
X148410675Y-110901170D01*
X148369494Y-110801750D01*
X148358997Y-110748978D01*
X148348500Y-110696207D01*
X148348500Y-110588593D01*
X148358997Y-110535822D01*
X148369494Y-110483050D01*
X148410675Y-110383630D01*
X148470461Y-110294154D01*
X148546554Y-110218061D01*
X148636030Y-110158275D01*
X148735450Y-110117094D01*
X148788222Y-110106597D01*
X148840993Y-110096100D01*
X148948607Y-110096100D01*
X149001378Y-110106597D01*
X149001378Y-110106597D01*
G37*
G36*
X151033378Y-110106597D02*
G01*
X151086150Y-110117094D01*
X151185570Y-110158275D01*
X151275046Y-110218061D01*
X151351139Y-110294154D01*
X151410925Y-110383630D01*
X151452106Y-110483050D01*
X151462603Y-110535822D01*
X151473100Y-110588593D01*
X151473100Y-110696207D01*
X151462603Y-110748978D01*
X151452106Y-110801750D01*
X151410925Y-110901170D01*
X151351139Y-110990646D01*
X151275046Y-111066739D01*
X151185570Y-111126525D01*
X151086150Y-111167706D01*
X151033378Y-111178203D01*
X150980607Y-111188700D01*
X150872993Y-111188700D01*
X150820222Y-111178203D01*
X150767450Y-111167706D01*
X150668030Y-111126525D01*
X150578554Y-111066739D01*
X150502461Y-110990646D01*
X150442675Y-110901170D01*
X150401494Y-110801750D01*
X150390997Y-110748978D01*
X150380500Y-110696207D01*
X150380500Y-110588593D01*
X150390997Y-110535822D01*
X150401494Y-110483050D01*
X150442675Y-110383630D01*
X150502461Y-110294154D01*
X150578554Y-110218061D01*
X150668030Y-110158275D01*
X150767450Y-110117094D01*
X150820222Y-110106597D01*
X150872993Y-110096100D01*
X150980607Y-110096100D01*
X151033378Y-110106597D01*
X151033378Y-110106597D01*
G37*
G36*
X106770800Y-111168000D02*
G01*
X104158800Y-111168000D01*
X104158800Y-110066000D01*
X106770800Y-110066000D01*
X106770800Y-111168000D01*
X106770800Y-111168000D01*
G37*
G36*
X118394378Y-110004997D02*
G01*
X118447150Y-110015494D01*
X118546570Y-110056675D01*
X118636046Y-110116461D01*
X118712139Y-110192554D01*
X118771925Y-110282030D01*
X118813106Y-110381450D01*
X118816413Y-110398077D01*
X118833316Y-110483050D01*
X118834100Y-110486994D01*
X118834100Y-110594606D01*
X118813106Y-110700150D01*
X118771925Y-110799570D01*
X118712139Y-110889046D01*
X118636046Y-110965139D01*
X118546570Y-111024925D01*
X118447150Y-111066106D01*
X118394378Y-111076603D01*
X118341607Y-111087100D01*
X118233993Y-111087100D01*
X118181222Y-111076603D01*
X118128450Y-111066106D01*
X118029030Y-111024925D01*
X117939554Y-110965139D01*
X117863461Y-110889046D01*
X117803675Y-110799570D01*
X117762494Y-110700150D01*
X117741500Y-110594606D01*
X117741500Y-110486994D01*
X117742285Y-110483050D01*
X117759187Y-110398077D01*
X117762494Y-110381450D01*
X117803675Y-110282030D01*
X117863461Y-110192554D01*
X117939554Y-110116461D01*
X118029030Y-110056675D01*
X118128450Y-110015494D01*
X118181222Y-110004997D01*
X118233993Y-109994500D01*
X118341607Y-109994500D01*
X118394378Y-110004997D01*
X118394378Y-110004997D01*
G37*
G36*
X120426378Y-110004997D02*
G01*
X120479150Y-110015494D01*
X120578570Y-110056675D01*
X120668046Y-110116461D01*
X120744139Y-110192554D01*
X120803925Y-110282030D01*
X120845106Y-110381450D01*
X120848413Y-110398077D01*
X120865316Y-110483050D01*
X120866100Y-110486994D01*
X120866100Y-110594606D01*
X120845106Y-110700150D01*
X120803925Y-110799570D01*
X120744139Y-110889046D01*
X120668046Y-110965139D01*
X120578570Y-111024925D01*
X120479150Y-111066106D01*
X120426378Y-111076603D01*
X120373607Y-111087100D01*
X120265993Y-111087100D01*
X120213222Y-111076603D01*
X120160450Y-111066106D01*
X120061030Y-111024925D01*
X119971554Y-110965139D01*
X119895461Y-110889046D01*
X119835675Y-110799570D01*
X119794494Y-110700150D01*
X119773500Y-110594606D01*
X119773500Y-110486994D01*
X119774285Y-110483050D01*
X119791187Y-110398077D01*
X119794494Y-110381450D01*
X119835675Y-110282030D01*
X119895461Y-110192554D01*
X119971554Y-110116461D01*
X120061030Y-110056675D01*
X120160450Y-110015494D01*
X120213222Y-110004997D01*
X120265993Y-109994500D01*
X120373607Y-109994500D01*
X120426378Y-110004997D01*
X120426378Y-110004997D01*
G37*
G36*
X153501099Y-109294845D02*
G01*
X153538595Y-109306220D01*
X153573154Y-109324692D01*
X153603447Y-109349553D01*
X153628308Y-109379846D01*
X153646780Y-109414405D01*
X153658155Y-109451901D01*
X153662600Y-109497038D01*
X153662600Y-110235762D01*
X153658155Y-110280899D01*
X153646780Y-110318395D01*
X153628308Y-110352954D01*
X153603447Y-110383247D01*
X153573154Y-110408108D01*
X153538595Y-110426580D01*
X153501099Y-110437955D01*
X153455962Y-110442400D01*
X152817238Y-110442400D01*
X152772101Y-110437955D01*
X152734605Y-110426580D01*
X152700046Y-110408108D01*
X152669753Y-110383247D01*
X152644892Y-110352954D01*
X152626420Y-110318395D01*
X152615045Y-110280899D01*
X152610600Y-110235762D01*
X152610600Y-109497038D01*
X152615045Y-109451901D01*
X152626420Y-109414405D01*
X152644892Y-109379846D01*
X152669753Y-109349553D01*
X152700046Y-109324692D01*
X152734605Y-109306220D01*
X152772101Y-109294845D01*
X152817238Y-109290400D01*
X153455962Y-109290400D01*
X153501099Y-109294845D01*
X153501099Y-109294845D01*
G37*
G36*
X158361200Y-109590200D02*
G01*
X157259200Y-109590200D01*
X157259200Y-106978200D01*
X158361200Y-106978200D01*
X158361200Y-109590200D01*
X158361200Y-109590200D01*
G37*
G36*
X144318600Y-109263000D02*
G01*
X141066600Y-109263000D01*
X141066600Y-108161000D01*
X144318600Y-108161000D01*
X144318600Y-109263000D01*
X144318600Y-109263000D01*
G37*
G36*
X139268600Y-109263000D02*
G01*
X136016600Y-109263000D01*
X136016600Y-108161000D01*
X139268600Y-108161000D01*
X139268600Y-109263000D01*
X139268600Y-109263000D01*
G37*
G36*
X109886800Y-108805200D02*
G01*
X109084800Y-108805200D01*
X109084800Y-107103200D01*
X109886800Y-107103200D01*
X109886800Y-108805200D01*
X109886800Y-108805200D01*
G37*
G36*
X116296800Y-108805200D02*
G01*
X115494800Y-108805200D01*
X115494800Y-107103200D01*
X116296800Y-107103200D01*
X116296800Y-108805200D01*
X116296800Y-108805200D01*
G37*
G36*
X114966800Y-108805200D02*
G01*
X114164800Y-108805200D01*
X114164800Y-107103200D01*
X114966800Y-107103200D01*
X114966800Y-108805200D01*
X114966800Y-108805200D01*
G37*
G36*
X113696800Y-108805200D02*
G01*
X112894800Y-108805200D01*
X112894800Y-107103200D01*
X113696800Y-107103200D01*
X113696800Y-108805200D01*
X113696800Y-108805200D01*
G37*
G36*
X111156800Y-108805200D02*
G01*
X110354800Y-108805200D01*
X110354800Y-107103200D01*
X111156800Y-107103200D01*
X111156800Y-108805200D01*
X111156800Y-108805200D01*
G37*
G36*
X108616800Y-108805200D02*
G01*
X107814800Y-108805200D01*
X107814800Y-107103200D01*
X108616800Y-107103200D01*
X108616800Y-108805200D01*
X108616800Y-108805200D01*
G37*
G36*
X107346800Y-108805200D02*
G01*
X106544800Y-108805200D01*
X106544800Y-107103200D01*
X107346800Y-107103200D01*
X107346800Y-108805200D01*
X107346800Y-108805200D01*
G37*
G36*
X106076800Y-108805200D02*
G01*
X105274800Y-108805200D01*
X105274800Y-107103200D01*
X106076800Y-107103200D01*
X106076800Y-108805200D01*
X106076800Y-108805200D01*
G37*
G36*
X104806800Y-108805200D02*
G01*
X104004800Y-108805200D01*
X104004800Y-107103200D01*
X104806800Y-107103200D01*
X104806800Y-108805200D01*
X104806800Y-108805200D01*
G37*
G36*
X112426800Y-108805200D02*
G01*
X111624800Y-108805200D01*
X111624800Y-107103200D01*
X112426800Y-107103200D01*
X112426800Y-108805200D01*
X112426800Y-108805200D01*
G37*
G36*
X153501099Y-107544845D02*
G01*
X153538595Y-107556220D01*
X153573154Y-107574692D01*
X153603447Y-107599553D01*
X153628308Y-107629846D01*
X153646780Y-107664405D01*
X153658155Y-107701901D01*
X153662600Y-107747038D01*
X153662600Y-108485762D01*
X153658155Y-108530899D01*
X153646780Y-108568395D01*
X153628308Y-108602954D01*
X153603447Y-108633247D01*
X153573154Y-108658108D01*
X153538595Y-108676580D01*
X153501099Y-108687955D01*
X153455962Y-108692400D01*
X152817238Y-108692400D01*
X152772101Y-108687955D01*
X152734605Y-108676580D01*
X152700046Y-108658108D01*
X152669753Y-108633247D01*
X152644892Y-108602954D01*
X152626420Y-108568395D01*
X152615045Y-108530899D01*
X152610600Y-108485762D01*
X152610600Y-107747038D01*
X152615045Y-107701901D01*
X152626420Y-107664405D01*
X152644892Y-107629846D01*
X152669753Y-107599553D01*
X152700046Y-107574692D01*
X152734605Y-107556220D01*
X152772101Y-107544845D01*
X152817238Y-107540400D01*
X153455962Y-107540400D01*
X153501099Y-107544845D01*
X153501099Y-107544845D01*
G37*
G36*
X123325899Y-107085045D02*
G01*
X123363395Y-107096420D01*
X123397954Y-107114892D01*
X123428247Y-107139753D01*
X123453108Y-107170046D01*
X123471580Y-107204605D01*
X123482955Y-107242101D01*
X123487400Y-107287238D01*
X123487400Y-108025962D01*
X123482955Y-108071099D01*
X123471580Y-108108595D01*
X123453108Y-108143154D01*
X123428247Y-108173447D01*
X123397954Y-108198308D01*
X123363395Y-108216780D01*
X123325899Y-108228155D01*
X123280762Y-108232600D01*
X122642038Y-108232600D01*
X122596901Y-108228155D01*
X122559405Y-108216780D01*
X122524846Y-108198308D01*
X122494553Y-108173447D01*
X122469692Y-108143154D01*
X122451220Y-108108595D01*
X122439845Y-108071099D01*
X122435400Y-108025962D01*
X122435400Y-107287238D01*
X122439845Y-107242101D01*
X122451220Y-107204605D01*
X122469692Y-107170046D01*
X122494553Y-107139753D01*
X122524846Y-107114892D01*
X122559405Y-107096420D01*
X122596901Y-107085045D01*
X122642038Y-107080600D01*
X123280762Y-107080600D01*
X123325899Y-107085045D01*
X123325899Y-107085045D01*
G37*
G36*
X121624099Y-107059645D02*
G01*
X121661595Y-107071020D01*
X121696154Y-107089492D01*
X121726447Y-107114353D01*
X121751308Y-107144646D01*
X121769780Y-107179205D01*
X121781155Y-107216701D01*
X121785600Y-107261838D01*
X121785600Y-108000562D01*
X121781155Y-108045699D01*
X121769780Y-108083195D01*
X121751308Y-108117754D01*
X121726447Y-108148047D01*
X121696154Y-108172908D01*
X121661595Y-108191380D01*
X121624099Y-108202755D01*
X121578962Y-108207200D01*
X120940238Y-108207200D01*
X120895101Y-108202755D01*
X120857605Y-108191380D01*
X120823046Y-108172908D01*
X120792753Y-108148047D01*
X120767892Y-108117754D01*
X120749420Y-108083195D01*
X120738045Y-108045699D01*
X120733600Y-108000562D01*
X120733600Y-107261838D01*
X120738045Y-107216701D01*
X120749420Y-107179205D01*
X120767892Y-107144646D01*
X120792753Y-107114353D01*
X120823046Y-107089492D01*
X120857605Y-107071020D01*
X120895101Y-107059645D01*
X120940238Y-107055200D01*
X121578962Y-107055200D01*
X121624099Y-107059645D01*
X121624099Y-107059645D01*
G37*
G36*
X149008400Y-108165200D02*
G01*
X147206400Y-108165200D01*
X147206400Y-106363200D01*
X149008400Y-106363200D01*
X149008400Y-108165200D01*
X149008400Y-108165200D01*
G37*
G36*
X150757843Y-106369719D02*
G01*
X150824027Y-106376237D01*
X150993866Y-106427757D01*
X151150391Y-106511422D01*
X151186129Y-106540752D01*
X151287586Y-106624014D01*
X151370848Y-106725471D01*
X151400178Y-106761209D01*
X151483843Y-106917734D01*
X151535363Y-107087573D01*
X151552759Y-107264200D01*
X151535363Y-107440827D01*
X151483843Y-107610666D01*
X151400178Y-107767191D01*
X151370848Y-107802929D01*
X151287586Y-107904386D01*
X151208121Y-107969600D01*
X151150391Y-108016978D01*
X150993866Y-108100643D01*
X150824027Y-108152163D01*
X150757843Y-108158681D01*
X150691660Y-108165200D01*
X150603140Y-108165200D01*
X150536957Y-108158681D01*
X150470773Y-108152163D01*
X150300934Y-108100643D01*
X150144409Y-108016978D01*
X150086679Y-107969600D01*
X150007214Y-107904386D01*
X149923952Y-107802929D01*
X149894622Y-107767191D01*
X149810957Y-107610666D01*
X149759437Y-107440827D01*
X149742041Y-107264200D01*
X149759437Y-107087573D01*
X149810957Y-106917734D01*
X149894622Y-106761209D01*
X149923952Y-106725471D01*
X150007214Y-106624014D01*
X150108671Y-106540752D01*
X150144409Y-106511422D01*
X150300934Y-106427757D01*
X150470773Y-106376237D01*
X150536957Y-106369719D01*
X150603140Y-106363200D01*
X150691660Y-106363200D01*
X150757843Y-106369719D01*
X150757843Y-106369719D01*
G37*
G36*
X102906800Y-107565200D02*
G01*
X101204800Y-107565200D01*
X101204800Y-106763200D01*
X102906800Y-106763200D01*
X102906800Y-107565200D01*
X102906800Y-107565200D01*
G37*
G36*
X118606800Y-107505200D02*
G01*
X116904800Y-107505200D01*
X116904800Y-106703200D01*
X118606800Y-106703200D01*
X118606800Y-107505200D01*
X118606800Y-107505200D01*
G37*
G36*
X144318600Y-106723000D02*
G01*
X141066600Y-106723000D01*
X141066600Y-105621000D01*
X144318600Y-105621000D01*
X144318600Y-106723000D01*
X144318600Y-106723000D01*
G37*
G36*
X139268600Y-106723000D02*
G01*
X136016600Y-106723000D01*
X136016600Y-105621000D01*
X139268600Y-105621000D01*
X139268600Y-106723000D01*
X139268600Y-106723000D01*
G37*
G36*
X123325899Y-105335045D02*
G01*
X123363395Y-105346420D01*
X123397954Y-105364892D01*
X123428247Y-105389753D01*
X123453108Y-105420046D01*
X123471580Y-105454605D01*
X123482955Y-105492101D01*
X123487400Y-105537238D01*
X123487400Y-106275962D01*
X123482955Y-106321099D01*
X123471580Y-106358595D01*
X123453108Y-106393154D01*
X123428247Y-106423447D01*
X123397954Y-106448308D01*
X123363395Y-106466780D01*
X123325899Y-106478155D01*
X123280762Y-106482600D01*
X122642038Y-106482600D01*
X122596901Y-106478155D01*
X122559405Y-106466780D01*
X122524846Y-106448308D01*
X122494553Y-106423447D01*
X122469692Y-106393154D01*
X122451220Y-106358595D01*
X122439845Y-106321099D01*
X122435400Y-106275962D01*
X122435400Y-105537238D01*
X122439845Y-105492101D01*
X122451220Y-105454605D01*
X122469692Y-105420046D01*
X122494553Y-105389753D01*
X122524846Y-105364892D01*
X122559405Y-105346420D01*
X122596901Y-105335045D01*
X122642038Y-105330600D01*
X123280762Y-105330600D01*
X123325899Y-105335045D01*
X123325899Y-105335045D01*
G37*
G36*
X121624099Y-105309645D02*
G01*
X121661595Y-105321020D01*
X121696154Y-105339492D01*
X121726447Y-105364353D01*
X121751308Y-105394646D01*
X121769780Y-105429205D01*
X121781155Y-105466701D01*
X121785600Y-105511838D01*
X121785600Y-106250562D01*
X121781155Y-106295699D01*
X121769780Y-106333195D01*
X121751308Y-106367754D01*
X121726447Y-106398047D01*
X121696154Y-106422908D01*
X121661595Y-106441380D01*
X121624099Y-106452755D01*
X121578962Y-106457200D01*
X120940238Y-106457200D01*
X120895101Y-106452755D01*
X120857605Y-106441380D01*
X120823046Y-106422908D01*
X120792753Y-106398047D01*
X120767892Y-106367754D01*
X120749420Y-106333195D01*
X120738045Y-106295699D01*
X120733600Y-106250562D01*
X120733600Y-105511838D01*
X120738045Y-105466701D01*
X120749420Y-105429205D01*
X120767892Y-105394646D01*
X120792753Y-105364353D01*
X120823046Y-105339492D01*
X120857605Y-105321020D01*
X120895101Y-105309645D01*
X120940238Y-105305200D01*
X121578962Y-105305200D01*
X121624099Y-105309645D01*
X121624099Y-105309645D01*
G37*
G36*
X102906800Y-106295200D02*
G01*
X101204800Y-106295200D01*
X101204800Y-105493200D01*
X102906800Y-105493200D01*
X102906800Y-106295200D01*
X102906800Y-106295200D01*
G37*
G36*
X155821200Y-106280200D02*
G01*
X154719200Y-106280200D01*
X154719200Y-103668200D01*
X155821200Y-103668200D01*
X155821200Y-106280200D01*
X155821200Y-106280200D01*
G37*
G36*
X118606800Y-106235200D02*
G01*
X116904800Y-106235200D01*
X116904800Y-105433200D01*
X118606800Y-105433200D01*
X118606800Y-106235200D01*
X118606800Y-106235200D01*
G37*
G36*
X102906800Y-105025200D02*
G01*
X101204800Y-105025200D01*
X101204800Y-104223200D01*
X102906800Y-104223200D01*
X102906800Y-105025200D01*
X102906800Y-105025200D01*
G37*
G36*
X118606800Y-104965200D02*
G01*
X116904800Y-104965200D01*
X116904800Y-104163200D01*
X118606800Y-104163200D01*
X118606800Y-104965200D01*
X118606800Y-104965200D01*
G37*
G36*
X138106350Y-104471670D02*
G01*
X123036130Y-104471670D01*
X123036130Y-102370690D01*
X138106350Y-102370690D01*
X138106350Y-104471670D01*
X138106350Y-104471670D01*
G37*
G36*
X149993887Y-101535196D02*
G01*
X150230653Y-101633268D01*
X150230655Y-101633269D01*
X150365016Y-101723046D01*
X150443739Y-101775647D01*
X150624953Y-101956861D01*
X150767332Y-102169947D01*
X150865404Y-102406713D01*
X150915400Y-102658061D01*
X150915400Y-102914339D01*
X150865404Y-103165687D01*
X150767332Y-103402453D01*
X150767331Y-103402455D01*
X150624953Y-103615539D01*
X150443739Y-103796753D01*
X150230655Y-103939131D01*
X150230654Y-103939132D01*
X150230653Y-103939132D01*
X149993887Y-104037204D01*
X149742539Y-104087200D01*
X149486261Y-104087200D01*
X149234913Y-104037204D01*
X148998147Y-103939132D01*
X148998146Y-103939132D01*
X148998145Y-103939131D01*
X148785061Y-103796753D01*
X148603847Y-103615539D01*
X148461469Y-103402455D01*
X148461468Y-103402453D01*
X148363396Y-103165687D01*
X148313400Y-102914339D01*
X148313400Y-102658061D01*
X148363396Y-102406713D01*
X148461468Y-102169947D01*
X148603847Y-101956861D01*
X148785061Y-101775647D01*
X148863784Y-101723046D01*
X148998145Y-101633269D01*
X148998147Y-101633268D01*
X149234913Y-101535196D01*
X149486261Y-101485200D01*
X149742539Y-101485200D01*
X149993887Y-101535196D01*
X149993887Y-101535196D01*
G37*
G36*
X102906800Y-103755200D02*
G01*
X101204800Y-103755200D01*
X101204800Y-102953200D01*
X102906800Y-102953200D01*
X102906800Y-103755200D01*
X102906800Y-103755200D01*
G37*
G36*
X118606800Y-103695200D02*
G01*
X116904800Y-103695200D01*
X116904800Y-102893200D01*
X118606800Y-102893200D01*
X118606800Y-103695200D01*
X118606800Y-103695200D01*
G37*
G36*
X158301699Y-101638045D02*
G01*
X158339195Y-101649420D01*
X158373754Y-101667892D01*
X158404047Y-101692753D01*
X158428908Y-101723046D01*
X158447380Y-101757605D01*
X158458755Y-101795101D01*
X158463200Y-101840238D01*
X158463200Y-102578962D01*
X158458755Y-102624099D01*
X158447380Y-102661595D01*
X158428908Y-102696154D01*
X158404047Y-102726447D01*
X158373754Y-102751308D01*
X158339195Y-102769780D01*
X158301699Y-102781155D01*
X158256562Y-102785600D01*
X157617838Y-102785600D01*
X157572701Y-102781155D01*
X157535205Y-102769780D01*
X157500646Y-102751308D01*
X157470353Y-102726447D01*
X157445492Y-102696154D01*
X157427020Y-102661595D01*
X157415645Y-102624099D01*
X157411200Y-102578962D01*
X157411200Y-101840238D01*
X157415645Y-101795101D01*
X157427020Y-101757605D01*
X157445492Y-101723046D01*
X157470353Y-101692753D01*
X157500646Y-101667892D01*
X157535205Y-101649420D01*
X157572701Y-101638045D01*
X157617838Y-101633600D01*
X158256562Y-101633600D01*
X158301699Y-101638045D01*
X158301699Y-101638045D01*
G37*
G36*
X102906800Y-102485200D02*
G01*
X101204800Y-102485200D01*
X101204800Y-101683200D01*
X102906800Y-101683200D01*
X102906800Y-102485200D01*
X102906800Y-102485200D01*
G37*
G36*
X118606800Y-102425200D02*
G01*
X116904800Y-102425200D01*
X116904800Y-101623200D01*
X118606800Y-101623200D01*
X118606800Y-102425200D01*
X118606800Y-102425200D01*
G37*
G36*
X122871430Y-102226310D02*
G01*
X120770450Y-102226310D01*
X120770450Y-84616090D01*
X122871430Y-84616090D01*
X122871430Y-102226310D01*
X122871430Y-102226310D01*
G37*
G36*
X140369490Y-102226310D02*
G01*
X138268510Y-102226310D01*
X138268510Y-84616090D01*
X140369490Y-84616090D01*
X140369490Y-102226310D01*
X140369490Y-102226310D01*
G37*
G36*
X154784299Y-100570445D02*
G01*
X154821795Y-100581820D01*
X154856354Y-100600292D01*
X154886647Y-100625153D01*
X154911508Y-100655446D01*
X154929980Y-100690005D01*
X154941355Y-100727501D01*
X154945800Y-100772638D01*
X154945800Y-101411362D01*
X154941355Y-101456499D01*
X154929980Y-101493995D01*
X154911508Y-101528554D01*
X154886647Y-101558847D01*
X154856354Y-101583708D01*
X154821795Y-101602180D01*
X154784299Y-101613555D01*
X154739162Y-101618000D01*
X154000438Y-101618000D01*
X153955301Y-101613555D01*
X153917805Y-101602180D01*
X153883246Y-101583708D01*
X153852953Y-101558847D01*
X153828092Y-101528554D01*
X153809620Y-101493995D01*
X153798245Y-101456499D01*
X153793800Y-101411362D01*
X153793800Y-100772638D01*
X153798245Y-100727501D01*
X153809620Y-100690005D01*
X153828092Y-100655446D01*
X153852953Y-100625153D01*
X153883246Y-100600292D01*
X153917805Y-100581820D01*
X153955301Y-100570445D01*
X154000438Y-100566000D01*
X154739162Y-100566000D01*
X154784299Y-100570445D01*
X154784299Y-100570445D01*
G37*
G36*
X156534299Y-100570445D02*
G01*
X156571795Y-100581820D01*
X156606354Y-100600292D01*
X156636647Y-100625153D01*
X156661508Y-100655446D01*
X156679980Y-100690005D01*
X156691355Y-100727501D01*
X156695800Y-100772638D01*
X156695800Y-101411362D01*
X156691355Y-101456499D01*
X156679980Y-101493995D01*
X156661508Y-101528554D01*
X156636647Y-101558847D01*
X156606354Y-101583708D01*
X156571795Y-101602180D01*
X156534299Y-101613555D01*
X156489162Y-101618000D01*
X155750438Y-101618000D01*
X155705301Y-101613555D01*
X155667805Y-101602180D01*
X155633246Y-101583708D01*
X155602953Y-101558847D01*
X155578092Y-101528554D01*
X155559620Y-101493995D01*
X155548245Y-101456499D01*
X155543800Y-101411362D01*
X155543800Y-100772638D01*
X155548245Y-100727501D01*
X155559620Y-100690005D01*
X155578092Y-100655446D01*
X155602953Y-100625153D01*
X155633246Y-100600292D01*
X155667805Y-100581820D01*
X155705301Y-100570445D01*
X155750438Y-100566000D01*
X156489162Y-100566000D01*
X156534299Y-100570445D01*
X156534299Y-100570445D01*
G37*
G36*
X142883899Y-100365445D02*
G01*
X142921395Y-100376820D01*
X142955954Y-100395292D01*
X142986247Y-100420153D01*
X143011108Y-100450446D01*
X143029580Y-100485005D01*
X143040955Y-100522501D01*
X143045400Y-100567638D01*
X143045400Y-101306362D01*
X143040955Y-101351499D01*
X143029580Y-101388995D01*
X143011108Y-101423554D01*
X142986247Y-101453847D01*
X142955954Y-101478708D01*
X142921395Y-101497180D01*
X142883899Y-101508555D01*
X142838762Y-101513000D01*
X142200038Y-101513000D01*
X142154901Y-101508555D01*
X142117405Y-101497180D01*
X142082846Y-101478708D01*
X142052553Y-101453847D01*
X142027692Y-101423554D01*
X142009220Y-101388995D01*
X141997845Y-101351499D01*
X141993400Y-101306362D01*
X141993400Y-100567638D01*
X141997845Y-100522501D01*
X142009220Y-100485005D01*
X142027692Y-100450446D01*
X142052553Y-100420153D01*
X142082846Y-100395292D01*
X142117405Y-100376820D01*
X142154901Y-100365445D01*
X142200038Y-100361000D01*
X142838762Y-100361000D01*
X142883899Y-100365445D01*
X142883899Y-100365445D01*
G37*
G36*
X144458699Y-100314645D02*
G01*
X144496195Y-100326020D01*
X144530754Y-100344492D01*
X144561047Y-100369353D01*
X144585908Y-100399646D01*
X144604380Y-100434205D01*
X144615755Y-100471701D01*
X144620200Y-100516838D01*
X144620200Y-101255562D01*
X144615755Y-101300699D01*
X144604380Y-101338195D01*
X144585908Y-101372754D01*
X144561047Y-101403047D01*
X144530754Y-101427908D01*
X144496195Y-101446380D01*
X144458699Y-101457755D01*
X144413562Y-101462200D01*
X143774838Y-101462200D01*
X143729701Y-101457755D01*
X143692205Y-101446380D01*
X143657646Y-101427908D01*
X143627353Y-101403047D01*
X143602492Y-101372754D01*
X143584020Y-101338195D01*
X143572645Y-101300699D01*
X143568200Y-101255562D01*
X143568200Y-100516838D01*
X143572645Y-100471701D01*
X143584020Y-100434205D01*
X143602492Y-100399646D01*
X143627353Y-100369353D01*
X143657646Y-100344492D01*
X143692205Y-100326020D01*
X143729701Y-100314645D01*
X143774838Y-100310200D01*
X144413562Y-100310200D01*
X144458699Y-100314645D01*
X144458699Y-100314645D01*
G37*
G36*
X102906800Y-101215200D02*
G01*
X101204800Y-101215200D01*
X101204800Y-100413200D01*
X102906800Y-100413200D01*
X102906800Y-101215200D01*
X102906800Y-101215200D01*
G37*
G36*
X118606800Y-101155200D02*
G01*
X116904800Y-101155200D01*
X116904800Y-100353200D01*
X118606800Y-100353200D01*
X118606800Y-101155200D01*
X118606800Y-101155200D01*
G37*
G36*
X158301699Y-99888045D02*
G01*
X158339195Y-99899420D01*
X158373754Y-99917892D01*
X158404047Y-99942753D01*
X158428908Y-99973046D01*
X158447380Y-100007605D01*
X158458755Y-100045101D01*
X158463200Y-100090238D01*
X158463200Y-100828962D01*
X158458755Y-100874099D01*
X158447380Y-100911595D01*
X158428908Y-100946154D01*
X158404047Y-100976447D01*
X158373754Y-101001308D01*
X158339195Y-101019780D01*
X158301699Y-101031155D01*
X158256562Y-101035600D01*
X157617838Y-101035600D01*
X157572701Y-101031155D01*
X157535205Y-101019780D01*
X157500646Y-101001308D01*
X157470353Y-100976447D01*
X157445492Y-100946154D01*
X157427020Y-100911595D01*
X157415645Y-100874099D01*
X157411200Y-100828962D01*
X157411200Y-100090238D01*
X157415645Y-100045101D01*
X157427020Y-100007605D01*
X157445492Y-99973046D01*
X157470353Y-99942753D01*
X157500646Y-99917892D01*
X157535205Y-99899420D01*
X157572701Y-99888045D01*
X157617838Y-99883600D01*
X158256562Y-99883600D01*
X158301699Y-99888045D01*
X158301699Y-99888045D01*
G37*
G36*
X107216800Y-100805200D02*
G01*
X105084800Y-100805200D01*
X105084800Y-98673200D01*
X107216800Y-98673200D01*
X107216800Y-100805200D01*
X107216800Y-100805200D01*
G37*
G36*
X102906800Y-99945200D02*
G01*
X101204800Y-99945200D01*
X101204800Y-99143200D01*
X102906800Y-99143200D01*
X102906800Y-99945200D01*
X102906800Y-99945200D01*
G37*
G36*
X118606800Y-99885200D02*
G01*
X116904800Y-99885200D01*
X116904800Y-99083200D01*
X118606800Y-99083200D01*
X118606800Y-99885200D01*
X118606800Y-99885200D01*
G37*
G36*
X142883899Y-98615445D02*
G01*
X142921395Y-98626820D01*
X142955954Y-98645292D01*
X142986247Y-98670153D01*
X143011108Y-98700446D01*
X143029580Y-98735005D01*
X143040955Y-98772501D01*
X143045400Y-98817638D01*
X143045400Y-99556362D01*
X143040955Y-99601499D01*
X143029580Y-99638995D01*
X143011108Y-99673554D01*
X142986247Y-99703847D01*
X142955954Y-99728708D01*
X142921395Y-99747180D01*
X142883899Y-99758555D01*
X142838762Y-99763000D01*
X142200038Y-99763000D01*
X142154901Y-99758555D01*
X142117405Y-99747180D01*
X142082846Y-99728708D01*
X142052553Y-99703847D01*
X142027692Y-99673554D01*
X142009220Y-99638995D01*
X141997845Y-99601499D01*
X141993400Y-99556362D01*
X141993400Y-98817638D01*
X141997845Y-98772501D01*
X142009220Y-98735005D01*
X142027692Y-98700446D01*
X142052553Y-98670153D01*
X142082846Y-98645292D01*
X142117405Y-98626820D01*
X142154901Y-98615445D01*
X142200038Y-98611000D01*
X142838762Y-98611000D01*
X142883899Y-98615445D01*
X142883899Y-98615445D01*
G37*
G36*
X144458699Y-98564645D02*
G01*
X144496195Y-98576020D01*
X144530754Y-98594492D01*
X144561047Y-98619353D01*
X144585908Y-98649646D01*
X144604380Y-98684205D01*
X144615755Y-98721701D01*
X144620200Y-98766838D01*
X144620200Y-99505562D01*
X144615755Y-99550699D01*
X144604380Y-99588195D01*
X144585908Y-99622754D01*
X144561047Y-99653047D01*
X144530754Y-99677908D01*
X144496195Y-99696380D01*
X144458699Y-99707755D01*
X144413562Y-99712200D01*
X143774838Y-99712200D01*
X143729701Y-99707755D01*
X143692205Y-99696380D01*
X143657646Y-99677908D01*
X143627353Y-99653047D01*
X143602492Y-99622754D01*
X143584020Y-99588195D01*
X143572645Y-99550699D01*
X143568200Y-99505562D01*
X143568200Y-98766838D01*
X143572645Y-98721701D01*
X143584020Y-98684205D01*
X143602492Y-98649646D01*
X143627353Y-98619353D01*
X143657646Y-98594492D01*
X143692205Y-98576020D01*
X143729701Y-98564645D01*
X143774838Y-98560200D01*
X144413562Y-98560200D01*
X144458699Y-98564645D01*
X144458699Y-98564645D01*
G37*
G36*
X148425000Y-99661000D02*
G01*
X147073000Y-99661000D01*
X147073000Y-97059000D01*
X148425000Y-97059000D01*
X148425000Y-99661000D01*
X148425000Y-99661000D01*
G37*
G36*
X146425000Y-99661000D02*
G01*
X145073000Y-99661000D01*
X145073000Y-97059000D01*
X146425000Y-97059000D01*
X146425000Y-99661000D01*
X146425000Y-99661000D01*
G37*
G36*
X150425000Y-99661000D02*
G01*
X149073000Y-99661000D01*
X149073000Y-97059000D01*
X150425000Y-97059000D01*
X150425000Y-99661000D01*
X150425000Y-99661000D01*
G37*
G36*
X156425000Y-99661000D02*
G01*
X155073000Y-99661000D01*
X155073000Y-97059000D01*
X156425000Y-97059000D01*
X156425000Y-99661000D01*
X156425000Y-99661000D01*
G37*
G36*
X154425000Y-99661000D02*
G01*
X153073000Y-99661000D01*
X153073000Y-97059000D01*
X154425000Y-97059000D01*
X154425000Y-99661000D01*
X154425000Y-99661000D01*
G37*
G36*
X152425000Y-99661000D02*
G01*
X151073000Y-99661000D01*
X151073000Y-97059000D01*
X152425000Y-97059000D01*
X152425000Y-99661000D01*
X152425000Y-99661000D01*
G37*
G36*
X102906800Y-98675200D02*
G01*
X101204800Y-98675200D01*
X101204800Y-97873200D01*
X102906800Y-97873200D01*
X102906800Y-98675200D01*
X102906800Y-98675200D01*
G37*
G36*
X118606800Y-98615200D02*
G01*
X116904800Y-98615200D01*
X116904800Y-97813200D01*
X118606800Y-97813200D01*
X118606800Y-98615200D01*
X118606800Y-98615200D01*
G37*
G36*
X144050000Y-97556000D02*
G01*
X141448000Y-97556000D01*
X141448000Y-96204000D01*
X144050000Y-96204000D01*
X144050000Y-97556000D01*
X144050000Y-97556000D01*
G37*
G36*
X160050000Y-97556000D02*
G01*
X157448000Y-97556000D01*
X157448000Y-96204000D01*
X160050000Y-96204000D01*
X160050000Y-97556000D01*
X160050000Y-97556000D01*
G37*
G36*
X102906800Y-97405200D02*
G01*
X101204800Y-97405200D01*
X101204800Y-96603200D01*
X102906800Y-96603200D01*
X102906800Y-97405200D01*
X102906800Y-97405200D01*
G37*
G36*
X118606800Y-97345200D02*
G01*
X116904800Y-97345200D01*
X116904800Y-96543200D01*
X118606800Y-96543200D01*
X118606800Y-97345200D01*
X118606800Y-97345200D01*
G37*
G36*
X102906800Y-96135200D02*
G01*
X101204800Y-96135200D01*
X101204800Y-95333200D01*
X102906800Y-95333200D01*
X102906800Y-96135200D01*
X102906800Y-96135200D01*
G37*
G36*
X118606800Y-96075200D02*
G01*
X116904800Y-96075200D01*
X116904800Y-95273200D01*
X118606800Y-95273200D01*
X118606800Y-96075200D01*
X118606800Y-96075200D01*
G37*
G36*
X160050000Y-95556000D02*
G01*
X157448000Y-95556000D01*
X157448000Y-94204000D01*
X160050000Y-94204000D01*
X160050000Y-95556000D01*
X160050000Y-95556000D01*
G37*
G36*
X144050000Y-95556000D02*
G01*
X141448000Y-95556000D01*
X141448000Y-94204000D01*
X144050000Y-94204000D01*
X144050000Y-95556000D01*
X144050000Y-95556000D01*
G37*
G36*
X102906800Y-94865200D02*
G01*
X101204800Y-94865200D01*
X101204800Y-94063200D01*
X102906800Y-94063200D01*
X102906800Y-94865200D01*
X102906800Y-94865200D01*
G37*
G36*
X118606800Y-94805200D02*
G01*
X116904800Y-94805200D01*
X116904800Y-94003200D01*
X118606800Y-94003200D01*
X118606800Y-94805200D01*
X118606800Y-94805200D01*
G37*
G36*
X144050000Y-93556000D02*
G01*
X141448000Y-93556000D01*
X141448000Y-92204000D01*
X144050000Y-92204000D01*
X144050000Y-93556000D01*
X144050000Y-93556000D01*
G37*
G36*
X160050000Y-93556000D02*
G01*
X157448000Y-93556000D01*
X157448000Y-92204000D01*
X160050000Y-92204000D01*
X160050000Y-93556000D01*
X160050000Y-93556000D01*
G37*
G36*
X118606800Y-93535200D02*
G01*
X116904800Y-93535200D01*
X116904800Y-92733200D01*
X118606800Y-92733200D01*
X118606800Y-93535200D01*
X118606800Y-93535200D01*
G37*
G36*
X102906800Y-93535200D02*
G01*
X101204800Y-93535200D01*
X101204800Y-92733200D01*
X102906800Y-92733200D01*
X102906800Y-93535200D01*
X102906800Y-93535200D01*
G37*
G36*
X118606800Y-92265200D02*
G01*
X116904800Y-92265200D01*
X116904800Y-91463200D01*
X118606800Y-91463200D01*
X118606800Y-92265200D01*
X118606800Y-92265200D01*
G37*
G36*
X102906800Y-92265200D02*
G01*
X101204800Y-92265200D01*
X101204800Y-91463200D01*
X102906800Y-91463200D01*
X102906800Y-92265200D01*
X102906800Y-92265200D01*
G37*
G36*
X144050000Y-91556000D02*
G01*
X141448000Y-91556000D01*
X141448000Y-90204000D01*
X144050000Y-90204000D01*
X144050000Y-91556000D01*
X144050000Y-91556000D01*
G37*
G36*
X160050000Y-91556000D02*
G01*
X157448000Y-91556000D01*
X157448000Y-90204000D01*
X160050000Y-90204000D01*
X160050000Y-91556000D01*
X160050000Y-91556000D01*
G37*
G36*
X108306800Y-91380200D02*
G01*
X106374800Y-91380200D01*
X106374800Y-89448200D01*
X108306800Y-89448200D01*
X108306800Y-91380200D01*
X108306800Y-91380200D01*
G37*
G36*
X102906800Y-90995200D02*
G01*
X101204800Y-90995200D01*
X101204800Y-90193200D01*
X102906800Y-90193200D01*
X102906800Y-90995200D01*
X102906800Y-90995200D01*
G37*
G36*
X118606800Y-90995200D02*
G01*
X116904800Y-90995200D01*
X116904800Y-90193200D01*
X118606800Y-90193200D01*
X118606800Y-90995200D01*
X118606800Y-90995200D01*
G37*
G36*
X102906800Y-89725200D02*
G01*
X101204800Y-89725200D01*
X101204800Y-88923200D01*
X102906800Y-88923200D01*
X102906800Y-89725200D01*
X102906800Y-89725200D01*
G37*
G36*
X160050000Y-89556000D02*
G01*
X157448000Y-89556000D01*
X157448000Y-88204000D01*
X160050000Y-88204000D01*
X160050000Y-89556000D01*
X160050000Y-89556000D01*
G37*
G36*
X144050000Y-89556000D02*
G01*
X141448000Y-89556000D01*
X141448000Y-88204000D01*
X144050000Y-88204000D01*
X144050000Y-89556000D01*
X144050000Y-89556000D01*
G37*
G36*
X102906800Y-88455200D02*
G01*
X101204800Y-88455200D01*
X101204800Y-87653200D01*
X102906800Y-87653200D01*
X102906800Y-88455200D01*
X102906800Y-88455200D01*
G37*
G36*
X144050000Y-87556000D02*
G01*
X141448000Y-87556000D01*
X141448000Y-86204000D01*
X144050000Y-86204000D01*
X144050000Y-87556000D01*
X144050000Y-87556000D01*
G37*
G36*
X160050000Y-87556000D02*
G01*
X157448000Y-87556000D01*
X157448000Y-86204000D01*
X160050000Y-86204000D01*
X160050000Y-87556000D01*
X160050000Y-87556000D01*
G37*
G36*
X111376800Y-87105200D02*
G01*
X110574800Y-87105200D01*
X110574800Y-85403200D01*
X111376800Y-85403200D01*
X111376800Y-87105200D01*
X111376800Y-87105200D01*
G37*
G36*
X107566800Y-87105200D02*
G01*
X106764800Y-87105200D01*
X106764800Y-85403200D01*
X107566800Y-85403200D01*
X107566800Y-87105200D01*
X107566800Y-87105200D01*
G37*
G36*
X106296800Y-87105200D02*
G01*
X105494800Y-87105200D01*
X105494800Y-85403200D01*
X106296800Y-85403200D01*
X106296800Y-87105200D01*
X106296800Y-87105200D01*
G37*
G36*
X108836800Y-87105200D02*
G01*
X108034800Y-87105200D01*
X108034800Y-85403200D01*
X108836800Y-85403200D01*
X108836800Y-87105200D01*
X108836800Y-87105200D01*
G37*
G36*
X110106800Y-87105200D02*
G01*
X109304800Y-87105200D01*
X109304800Y-85403200D01*
X110106800Y-85403200D01*
X110106800Y-87105200D01*
X110106800Y-87105200D01*
G37*
G36*
X112646800Y-87105200D02*
G01*
X111844800Y-87105200D01*
X111844800Y-85403200D01*
X112646800Y-85403200D01*
X112646800Y-87105200D01*
X112646800Y-87105200D01*
G37*
G36*
X105026800Y-87105200D02*
G01*
X104224800Y-87105200D01*
X104224800Y-85403200D01*
X105026800Y-85403200D01*
X105026800Y-87105200D01*
X105026800Y-87105200D01*
G37*
G36*
X103756800Y-87105200D02*
G01*
X102954800Y-87105200D01*
X102954800Y-85403200D01*
X103756800Y-85403200D01*
X103756800Y-87105200D01*
X103756800Y-87105200D01*
G37*
G36*
X116456800Y-87105200D02*
G01*
X115654800Y-87105200D01*
X115654800Y-85403200D01*
X116456800Y-85403200D01*
X116456800Y-87105200D01*
X116456800Y-87105200D01*
G37*
G36*
X115186800Y-87105200D02*
G01*
X114384800Y-87105200D01*
X114384800Y-85403200D01*
X115186800Y-85403200D01*
X115186800Y-87105200D01*
X115186800Y-87105200D01*
G37*
G36*
X113916800Y-87105200D02*
G01*
X113114800Y-87105200D01*
X113114800Y-85403200D01*
X113916800Y-85403200D01*
X113916800Y-87105200D01*
X113916800Y-87105200D01*
G37*
G36*
X144050000Y-85556000D02*
G01*
X141448000Y-85556000D01*
X141448000Y-84204000D01*
X144050000Y-84204000D01*
X144050000Y-85556000D01*
X144050000Y-85556000D01*
G37*
G36*
X160050000Y-85556000D02*
G01*
X157448000Y-85556000D01*
X157448000Y-84204000D01*
X160050000Y-84204000D01*
X160050000Y-85556000D01*
X160050000Y-85556000D01*
G37*
G36*
X114635178Y-82826997D02*
G01*
X114687950Y-82837494D01*
X114787370Y-82878675D01*
X114876846Y-82938461D01*
X114952939Y-83014554D01*
X115012725Y-83104030D01*
X115053906Y-83203450D01*
X115074900Y-83308994D01*
X115074900Y-83416606D01*
X115053906Y-83522150D01*
X115012725Y-83621570D01*
X114952939Y-83711046D01*
X114876846Y-83787139D01*
X114787370Y-83846925D01*
X114687950Y-83888106D01*
X114635178Y-83898603D01*
X114582407Y-83909100D01*
X114474793Y-83909100D01*
X114422022Y-83898603D01*
X114369250Y-83888106D01*
X114269830Y-83846925D01*
X114180354Y-83787139D01*
X114104261Y-83711046D01*
X114044475Y-83621570D01*
X114003294Y-83522150D01*
X113982300Y-83416606D01*
X113982300Y-83308994D01*
X114003294Y-83203450D01*
X114044475Y-83104030D01*
X114104261Y-83014554D01*
X114180354Y-82938461D01*
X114269830Y-82878675D01*
X114369250Y-82837494D01*
X114422022Y-82826997D01*
X114474793Y-82816500D01*
X114582407Y-82816500D01*
X114635178Y-82826997D01*
X114635178Y-82826997D01*
G37*
G36*
X107171443Y-81782519D02*
G01*
X107237627Y-81789037D01*
X107407466Y-81840557D01*
X107407468Y-81840558D01*
X107436556Y-81856106D01*
X107563991Y-81924222D01*
X107599729Y-81953552D01*
X107701186Y-82036814D01*
X107784448Y-82138271D01*
X107813778Y-82174009D01*
X107897443Y-82330534D01*
X107948963Y-82500373D01*
X107966359Y-82677000D01*
X107948963Y-82853627D01*
X107897443Y-83023466D01*
X107813778Y-83179991D01*
X107794525Y-83203451D01*
X107701186Y-83317186D01*
X107599729Y-83400448D01*
X107563991Y-83429778D01*
X107407466Y-83513443D01*
X107237627Y-83564963D01*
X107171443Y-83571481D01*
X107105260Y-83578000D01*
X107016740Y-83578000D01*
X106950557Y-83571481D01*
X106884373Y-83564963D01*
X106714534Y-83513443D01*
X106558009Y-83429778D01*
X106522271Y-83400448D01*
X106420814Y-83317186D01*
X106327475Y-83203451D01*
X106308222Y-83179991D01*
X106224557Y-83023466D01*
X106173037Y-82853627D01*
X106155641Y-82677000D01*
X106173037Y-82500373D01*
X106224557Y-82330534D01*
X106308222Y-82174009D01*
X106337552Y-82138271D01*
X106420814Y-82036814D01*
X106522271Y-81953552D01*
X106558009Y-81924222D01*
X106685444Y-81856106D01*
X106714532Y-81840558D01*
X106714534Y-81840557D01*
X106884373Y-81789037D01*
X106950557Y-81782519D01*
X107016740Y-81776000D01*
X107105260Y-81776000D01*
X107171443Y-81782519D01*
X107171443Y-81782519D01*
G37*
G36*
X109711443Y-81782519D02*
G01*
X109777627Y-81789037D01*
X109947466Y-81840557D01*
X109947468Y-81840558D01*
X109976556Y-81856106D01*
X110103991Y-81924222D01*
X110139729Y-81953552D01*
X110241186Y-82036814D01*
X110324448Y-82138271D01*
X110353778Y-82174009D01*
X110437443Y-82330534D01*
X110488963Y-82500373D01*
X110506359Y-82677000D01*
X110488963Y-82853627D01*
X110437443Y-83023466D01*
X110353778Y-83179991D01*
X110334525Y-83203451D01*
X110241186Y-83317186D01*
X110139729Y-83400448D01*
X110103991Y-83429778D01*
X109947466Y-83513443D01*
X109777627Y-83564963D01*
X109711443Y-83571481D01*
X109645260Y-83578000D01*
X109556740Y-83578000D01*
X109490557Y-83571481D01*
X109424373Y-83564963D01*
X109254534Y-83513443D01*
X109098009Y-83429778D01*
X109062271Y-83400448D01*
X108960814Y-83317186D01*
X108867475Y-83203451D01*
X108848222Y-83179991D01*
X108764557Y-83023466D01*
X108713037Y-82853627D01*
X108695641Y-82677000D01*
X108713037Y-82500373D01*
X108764557Y-82330534D01*
X108848222Y-82174009D01*
X108877552Y-82138271D01*
X108960814Y-82036814D01*
X109062271Y-81953552D01*
X109098009Y-81924222D01*
X109225444Y-81856106D01*
X109254532Y-81840558D01*
X109254534Y-81840557D01*
X109424373Y-81789037D01*
X109490557Y-81782519D01*
X109556740Y-81776000D01*
X109645260Y-81776000D01*
X109711443Y-81782519D01*
X109711443Y-81782519D01*
G37*
G36*
X112251443Y-81782519D02*
G01*
X112317627Y-81789037D01*
X112487466Y-81840557D01*
X112487468Y-81840558D01*
X112516556Y-81856106D01*
X112643991Y-81924222D01*
X112679729Y-81953552D01*
X112781186Y-82036814D01*
X112864448Y-82138271D01*
X112893778Y-82174009D01*
X112977443Y-82330534D01*
X113028963Y-82500373D01*
X113046359Y-82677000D01*
X113028963Y-82853627D01*
X112977443Y-83023466D01*
X112893778Y-83179991D01*
X112874525Y-83203451D01*
X112781186Y-83317186D01*
X112679729Y-83400448D01*
X112643991Y-83429778D01*
X112487466Y-83513443D01*
X112317627Y-83564963D01*
X112251443Y-83571481D01*
X112185260Y-83578000D01*
X112096740Y-83578000D01*
X112030557Y-83571481D01*
X111964373Y-83564963D01*
X111794534Y-83513443D01*
X111638009Y-83429778D01*
X111602271Y-83400448D01*
X111500814Y-83317186D01*
X111407475Y-83203451D01*
X111388222Y-83179991D01*
X111304557Y-83023466D01*
X111253037Y-82853627D01*
X111235641Y-82677000D01*
X111253037Y-82500373D01*
X111304557Y-82330534D01*
X111388222Y-82174009D01*
X111417552Y-82138271D01*
X111500814Y-82036814D01*
X111602271Y-81953552D01*
X111638009Y-81924222D01*
X111765444Y-81856106D01*
X111794532Y-81840558D01*
X111794534Y-81840557D01*
X111964373Y-81789037D01*
X112030557Y-81782519D01*
X112096740Y-81776000D01*
X112185260Y-81776000D01*
X112251443Y-81782519D01*
X112251443Y-81782519D01*
G37*
G36*
X104631443Y-81782519D02*
G01*
X104697627Y-81789037D01*
X104867466Y-81840557D01*
X104867468Y-81840558D01*
X104896556Y-81856106D01*
X105023991Y-81924222D01*
X105059729Y-81953552D01*
X105161186Y-82036814D01*
X105244448Y-82138271D01*
X105273778Y-82174009D01*
X105357443Y-82330534D01*
X105408963Y-82500373D01*
X105426359Y-82677000D01*
X105408963Y-82853627D01*
X105357443Y-83023466D01*
X105273778Y-83179991D01*
X105254525Y-83203451D01*
X105161186Y-83317186D01*
X105059729Y-83400448D01*
X105023991Y-83429778D01*
X104867466Y-83513443D01*
X104697627Y-83564963D01*
X104631443Y-83571481D01*
X104565260Y-83578000D01*
X104476740Y-83578000D01*
X104410557Y-83571481D01*
X104344373Y-83564963D01*
X104174534Y-83513443D01*
X104018009Y-83429778D01*
X103982271Y-83400448D01*
X103880814Y-83317186D01*
X103787475Y-83203451D01*
X103768222Y-83179991D01*
X103684557Y-83023466D01*
X103633037Y-82853627D01*
X103615641Y-82677000D01*
X103633037Y-82500373D01*
X103684557Y-82330534D01*
X103768222Y-82174009D01*
X103797552Y-82138271D01*
X103880814Y-82036814D01*
X103982271Y-81953552D01*
X104018009Y-81924222D01*
X104145444Y-81856106D01*
X104174532Y-81840558D01*
X104174534Y-81840557D01*
X104344373Y-81789037D01*
X104410557Y-81782519D01*
X104476740Y-81776000D01*
X104565260Y-81776000D01*
X104631443Y-81782519D01*
X104631443Y-81782519D01*
G37*
G36*
X102882000Y-83578000D02*
G01*
X101080000Y-83578000D01*
X101080000Y-81776000D01*
X102882000Y-81776000D01*
X102882000Y-83578000D01*
X102882000Y-83578000D01*
G37*
G36*
X144050000Y-83556000D02*
G01*
X141448000Y-83556000D01*
X141448000Y-82204000D01*
X144050000Y-82204000D01*
X144050000Y-83556000D01*
X144050000Y-83556000D01*
G37*
G36*
X160050000Y-83556000D02*
G01*
X157448000Y-83556000D01*
X157448000Y-82204000D01*
X160050000Y-82204000D01*
X160050000Y-83556000D01*
X160050000Y-83556000D01*
G37*
G36*
X115928314Y-82554189D02*
G01*
X116009245Y-82587712D01*
X116082080Y-82636379D01*
X116144021Y-82698320D01*
X116192688Y-82771155D01*
X116192689Y-82771157D01*
X116226211Y-82852086D01*
X116243300Y-82937999D01*
X116243300Y-83025601D01*
X116226211Y-83111514D01*
X116197848Y-83179989D01*
X116192688Y-83192445D01*
X116144021Y-83265280D01*
X116082080Y-83327221D01*
X116009245Y-83375888D01*
X116009244Y-83375889D01*
X116009243Y-83375889D01*
X115928314Y-83409411D01*
X115842401Y-83426500D01*
X115754799Y-83426500D01*
X115668886Y-83409411D01*
X115587957Y-83375889D01*
X115587956Y-83375889D01*
X115587955Y-83375888D01*
X115515120Y-83327221D01*
X115453179Y-83265280D01*
X115404512Y-83192445D01*
X115399353Y-83179989D01*
X115370989Y-83111514D01*
X115353900Y-83025601D01*
X115353900Y-82937999D01*
X115370989Y-82852086D01*
X115404511Y-82771157D01*
X115404512Y-82771155D01*
X115453179Y-82698320D01*
X115515120Y-82636379D01*
X115587955Y-82587712D01*
X115668886Y-82554189D01*
X115754799Y-82537100D01*
X115842401Y-82537100D01*
X115928314Y-82554189D01*
X115928314Y-82554189D01*
G37*
G36*
X118468314Y-82554189D02*
G01*
X118549245Y-82587712D01*
X118622080Y-82636379D01*
X118684021Y-82698320D01*
X118732688Y-82771155D01*
X118732689Y-82771157D01*
X118766211Y-82852086D01*
X118783300Y-82937999D01*
X118783300Y-83025601D01*
X118766211Y-83111514D01*
X118737848Y-83179989D01*
X118732688Y-83192445D01*
X118684021Y-83265280D01*
X118622080Y-83327221D01*
X118549245Y-83375888D01*
X118549244Y-83375889D01*
X118549243Y-83375889D01*
X118468314Y-83409411D01*
X118382401Y-83426500D01*
X118294799Y-83426500D01*
X118208886Y-83409411D01*
X118127957Y-83375889D01*
X118127956Y-83375889D01*
X118127955Y-83375888D01*
X118055120Y-83327221D01*
X117993179Y-83265280D01*
X117944512Y-83192445D01*
X117939353Y-83179989D01*
X117910989Y-83111514D01*
X117893900Y-83025601D01*
X117893900Y-82937999D01*
X117910989Y-82852086D01*
X117944511Y-82771157D01*
X117944512Y-82771155D01*
X117993179Y-82698320D01*
X118055120Y-82636379D01*
X118127955Y-82587712D01*
X118208886Y-82554189D01*
X118294799Y-82537100D01*
X118382401Y-82537100D01*
X118468314Y-82554189D01*
X118468314Y-82554189D01*
G37*
G36*
X117198314Y-82554189D02*
G01*
X117279245Y-82587712D01*
X117352080Y-82636379D01*
X117414021Y-82698320D01*
X117462688Y-82771155D01*
X117462689Y-82771157D01*
X117496211Y-82852086D01*
X117513300Y-82937999D01*
X117513300Y-83025601D01*
X117496211Y-83111514D01*
X117467848Y-83179989D01*
X117462688Y-83192445D01*
X117414021Y-83265280D01*
X117352080Y-83327221D01*
X117279245Y-83375888D01*
X117279244Y-83375889D01*
X117279243Y-83375889D01*
X117198314Y-83409411D01*
X117112401Y-83426500D01*
X117024799Y-83426500D01*
X116938886Y-83409411D01*
X116857957Y-83375889D01*
X116857956Y-83375889D01*
X116857955Y-83375888D01*
X116785120Y-83327221D01*
X116723179Y-83265280D01*
X116674512Y-83192445D01*
X116669353Y-83179989D01*
X116640989Y-83111514D01*
X116623900Y-83025601D01*
X116623900Y-82937999D01*
X116640989Y-82852086D01*
X116674511Y-82771157D01*
X116674512Y-82771155D01*
X116723179Y-82698320D01*
X116785120Y-82636379D01*
X116857955Y-82587712D01*
X116938886Y-82554189D01*
X117024799Y-82537100D01*
X117112401Y-82537100D01*
X117198314Y-82554189D01*
X117198314Y-82554189D01*
G37*
G36*
X140369490Y-83176310D02*
G01*
X138268510Y-83176310D01*
X138268510Y-80806090D01*
X140369490Y-80806090D01*
X140369490Y-83176310D01*
X140369490Y-83176310D01*
G37*
G36*
X122871430Y-83176310D02*
G01*
X120770450Y-83176310D01*
X120770450Y-80806090D01*
X122871430Y-80806090D01*
X122871430Y-83176310D01*
X122871430Y-83176310D01*
G37*
G36*
X119715178Y-81810997D02*
G01*
X119767950Y-81821494D01*
X119867370Y-81862675D01*
X119956846Y-81922461D01*
X120032939Y-81998554D01*
X120092725Y-82088030D01*
X120133906Y-82187450D01*
X120154900Y-82292994D01*
X120154900Y-82400606D01*
X120133906Y-82506150D01*
X120092725Y-82605570D01*
X120032939Y-82695046D01*
X119956846Y-82771139D01*
X119867370Y-82830925D01*
X119767950Y-82872106D01*
X119734925Y-82878675D01*
X119662407Y-82893100D01*
X119554793Y-82893100D01*
X119482275Y-82878675D01*
X119449250Y-82872106D01*
X119349830Y-82830925D01*
X119260354Y-82771139D01*
X119184261Y-82695046D01*
X119124475Y-82605570D01*
X119083294Y-82506150D01*
X119062300Y-82400606D01*
X119062300Y-82292994D01*
X119083294Y-82187450D01*
X119124475Y-82088030D01*
X119184261Y-81998554D01*
X119260354Y-81922461D01*
X119349830Y-81862675D01*
X119449250Y-81821494D01*
X119502022Y-81810997D01*
X119554793Y-81800500D01*
X119662407Y-81800500D01*
X119715178Y-81810997D01*
X119715178Y-81810997D01*
G37*
G36*
X115928314Y-81284189D02*
G01*
X116009245Y-81317712D01*
X116082080Y-81366379D01*
X116144021Y-81428320D01*
X116192688Y-81501155D01*
X116192689Y-81501157D01*
X116226211Y-81582086D01*
X116243300Y-81667999D01*
X116243300Y-81755601D01*
X116226211Y-81841514D01*
X116199372Y-81906310D01*
X116192688Y-81922445D01*
X116144021Y-81995280D01*
X116082080Y-82057221D01*
X116009245Y-82105888D01*
X116009244Y-82105889D01*
X116009243Y-82105889D01*
X115928314Y-82139411D01*
X115842401Y-82156500D01*
X115754799Y-82156500D01*
X115668886Y-82139411D01*
X115587957Y-82105889D01*
X115587956Y-82105889D01*
X115587955Y-82105888D01*
X115515120Y-82057221D01*
X115453179Y-81995280D01*
X115404512Y-81922445D01*
X115397829Y-81906310D01*
X115370989Y-81841514D01*
X115353900Y-81755601D01*
X115353900Y-81667999D01*
X115370989Y-81582086D01*
X115404511Y-81501157D01*
X115404512Y-81501155D01*
X115453179Y-81428320D01*
X115515120Y-81366379D01*
X115587955Y-81317712D01*
X115668886Y-81284189D01*
X115754799Y-81267100D01*
X115842401Y-81267100D01*
X115928314Y-81284189D01*
X115928314Y-81284189D01*
G37*
G36*
X117198314Y-81284189D02*
G01*
X117279245Y-81317712D01*
X117352080Y-81366379D01*
X117414021Y-81428320D01*
X117462688Y-81501155D01*
X117462689Y-81501157D01*
X117496211Y-81582086D01*
X117513300Y-81667999D01*
X117513300Y-81755601D01*
X117496211Y-81841514D01*
X117469372Y-81906310D01*
X117462688Y-81922445D01*
X117414021Y-81995280D01*
X117352080Y-82057221D01*
X117279245Y-82105888D01*
X117279244Y-82105889D01*
X117279243Y-82105889D01*
X117198314Y-82139411D01*
X117112401Y-82156500D01*
X117024799Y-82156500D01*
X116938886Y-82139411D01*
X116857957Y-82105889D01*
X116857956Y-82105889D01*
X116857955Y-82105888D01*
X116785120Y-82057221D01*
X116723179Y-81995280D01*
X116674512Y-81922445D01*
X116667829Y-81906310D01*
X116640989Y-81841514D01*
X116623900Y-81755601D01*
X116623900Y-81667999D01*
X116640989Y-81582086D01*
X116674511Y-81501157D01*
X116674512Y-81501155D01*
X116723179Y-81428320D01*
X116785120Y-81366379D01*
X116857955Y-81317712D01*
X116938886Y-81284189D01*
X117024799Y-81267100D01*
X117112401Y-81267100D01*
X117198314Y-81284189D01*
X117198314Y-81284189D01*
G37*
G36*
X118468314Y-81284189D02*
G01*
X118549245Y-81317712D01*
X118622080Y-81366379D01*
X118684021Y-81428320D01*
X118732688Y-81501155D01*
X118732689Y-81501157D01*
X118766211Y-81582086D01*
X118783300Y-81667999D01*
X118783300Y-81755601D01*
X118766211Y-81841514D01*
X118739372Y-81906310D01*
X118732688Y-81922445D01*
X118684021Y-81995280D01*
X118622080Y-82057221D01*
X118549245Y-82105888D01*
X118549244Y-82105889D01*
X118549243Y-82105889D01*
X118468314Y-82139411D01*
X118382401Y-82156500D01*
X118294799Y-82156500D01*
X118208886Y-82139411D01*
X118127957Y-82105889D01*
X118127956Y-82105889D01*
X118127955Y-82105888D01*
X118055120Y-82057221D01*
X117993179Y-81995280D01*
X117944512Y-81922445D01*
X117937829Y-81906310D01*
X117910989Y-81841514D01*
X117893900Y-81755601D01*
X117893900Y-81667999D01*
X117910989Y-81582086D01*
X117944511Y-81501157D01*
X117944512Y-81501155D01*
X117993179Y-81428320D01*
X118055120Y-81366379D01*
X118127955Y-81317712D01*
X118208886Y-81284189D01*
X118294799Y-81267100D01*
X118382401Y-81267100D01*
X118468314Y-81284189D01*
X118468314Y-81284189D01*
G37*
G36*
X114635178Y-80794997D02*
G01*
X114687950Y-80805494D01*
X114787370Y-80846675D01*
X114876846Y-80906461D01*
X114952939Y-80982554D01*
X115012725Y-81072030D01*
X115053906Y-81171450D01*
X115074900Y-81276994D01*
X115074900Y-81384606D01*
X115053906Y-81490150D01*
X115012725Y-81589570D01*
X114952939Y-81679046D01*
X114876846Y-81755139D01*
X114787370Y-81814925D01*
X114687950Y-81856106D01*
X114654925Y-81862675D01*
X114582407Y-81877100D01*
X114474793Y-81877100D01*
X114402275Y-81862675D01*
X114369250Y-81856106D01*
X114269830Y-81814925D01*
X114180354Y-81755139D01*
X114104261Y-81679046D01*
X114044475Y-81589570D01*
X114003294Y-81490150D01*
X113982300Y-81384606D01*
X113982300Y-81276994D01*
X114003294Y-81171450D01*
X114044475Y-81072030D01*
X114104261Y-80982554D01*
X114180354Y-80906461D01*
X114269830Y-80846675D01*
X114369250Y-80805494D01*
X114422022Y-80794997D01*
X114474793Y-80784500D01*
X114582407Y-80784500D01*
X114635178Y-80794997D01*
X114635178Y-80794997D01*
G37*
M02*
