G04 #@! TF.GenerationSoftware,KiCad,Pcbnew,(5.1.4)-1*
G04 #@! TF.CreationDate,2019-11-03T20:25:49+01:00*
G04 #@! TF.ProjectId,121019_breakoutBoard_cureBag_V1,31323130-3139-45f6-9272-65616b6f7574,rev?*
G04 #@! TF.SameCoordinates,Original*
G04 #@! TF.FileFunction,Legend,Bot*
G04 #@! TF.FilePolarity,Positive*
%FSLAX46Y46*%
G04 Gerber Fmt 4.6, Leading zero omitted, Abs format (unit mm)*
G04 Created by KiCad (PCBNEW (5.1.4)-1) date 2019-11-03 20:25:49*
%MOMM*%
%LPD*%
G04 APERTURE LIST*
%ADD10C,0.120000*%
%ADD11C,0.150000*%
G04 APERTURE END LIST*
D10*
X120614400Y-105286200D02*
X120614400Y-80286200D01*
X120614400Y-80286200D02*
X160614400Y-80286200D01*
X160614400Y-105286200D02*
X120614400Y-105286200D01*
X160614400Y-80286200D02*
X160614400Y-105286200D01*
X145567400Y-117195600D02*
X145567400Y-115925600D01*
X144297400Y-117195600D02*
X145567400Y-117195600D01*
X126137400Y-114882671D02*
X126137400Y-114485600D01*
X126897400Y-114882671D02*
X126897400Y-114485600D01*
X126137400Y-105825600D02*
X126137400Y-111825600D01*
X126897400Y-105825600D02*
X126137400Y-105825600D01*
X126897400Y-111825600D02*
X126897400Y-105825600D01*
X127787400Y-114485600D02*
X127787400Y-111825600D01*
X128677400Y-114882671D02*
X128677400Y-114485600D01*
X129437400Y-114882671D02*
X129437400Y-114485600D01*
X128677400Y-105825600D02*
X128677400Y-111825600D01*
X129437400Y-105825600D02*
X128677400Y-105825600D01*
X129437400Y-111825600D02*
X129437400Y-105825600D01*
X130327400Y-114485600D02*
X130327400Y-111825600D01*
X131217400Y-114882671D02*
X131217400Y-114485600D01*
X131977400Y-114882671D02*
X131977400Y-114485600D01*
X131217400Y-105825600D02*
X131217400Y-111825600D01*
X131977400Y-105825600D02*
X131217400Y-105825600D01*
X131977400Y-111825600D02*
X131977400Y-105825600D01*
X132867400Y-114485600D02*
X132867400Y-111825600D01*
X133757400Y-114882671D02*
X133757400Y-114485600D01*
X134517400Y-114882671D02*
X134517400Y-114485600D01*
X133757400Y-105825600D02*
X133757400Y-111825600D01*
X134517400Y-105825600D02*
X133757400Y-105825600D01*
X134517400Y-111825600D02*
X134517400Y-105825600D01*
X135407400Y-114485600D02*
X135407400Y-111825600D01*
X136297400Y-114882671D02*
X136297400Y-114485600D01*
X137057400Y-114882671D02*
X137057400Y-114485600D01*
X136297400Y-105825600D02*
X136297400Y-111825600D01*
X137057400Y-105825600D02*
X136297400Y-105825600D01*
X137057400Y-111825600D02*
X137057400Y-105825600D01*
X137947400Y-114485600D02*
X137947400Y-111825600D01*
X138837400Y-114882671D02*
X138837400Y-114485600D01*
X139597400Y-114882671D02*
X139597400Y-114485600D01*
X138837400Y-105825600D02*
X138837400Y-111825600D01*
X139597400Y-105825600D02*
X138837400Y-105825600D01*
X139597400Y-111825600D02*
X139597400Y-105825600D01*
X140487400Y-114485600D02*
X140487400Y-111825600D01*
X141377400Y-114882671D02*
X141377400Y-114485600D01*
X142137400Y-114882671D02*
X142137400Y-114485600D01*
X141377400Y-105825600D02*
X141377400Y-111825600D01*
X142137400Y-105825600D02*
X141377400Y-105825600D01*
X142137400Y-111825600D02*
X142137400Y-105825600D01*
X143027400Y-114485600D02*
X143027400Y-111825600D01*
X143917400Y-114815600D02*
X143917400Y-114485600D01*
X144677400Y-114815600D02*
X144677400Y-114485600D01*
X144017400Y-111825600D02*
X144017400Y-105825600D01*
X144137400Y-111825600D02*
X144137400Y-105825600D01*
X144257400Y-111825600D02*
X144257400Y-105825600D01*
X144377400Y-111825600D02*
X144377400Y-105825600D01*
X144497400Y-111825600D02*
X144497400Y-105825600D01*
X144617400Y-111825600D02*
X144617400Y-105825600D01*
X143917400Y-105825600D02*
X143917400Y-111825600D01*
X144677400Y-105825600D02*
X143917400Y-105825600D01*
X144677400Y-111825600D02*
X144677400Y-105825600D01*
X145627400Y-111825600D02*
X145627400Y-114485600D01*
X125187400Y-111825600D02*
X145627400Y-111825600D01*
X125187400Y-114485600D02*
X125187400Y-111825600D01*
X145627400Y-114485600D02*
X125187400Y-114485600D01*
X116052600Y-116967000D02*
X116052600Y-115697000D01*
X114782600Y-116967000D02*
X116052600Y-116967000D01*
X101702600Y-114654071D02*
X101702600Y-114257000D01*
X102462600Y-114654071D02*
X102462600Y-114257000D01*
X101702600Y-105597000D02*
X101702600Y-111597000D01*
X102462600Y-105597000D02*
X101702600Y-105597000D01*
X102462600Y-111597000D02*
X102462600Y-105597000D01*
X103352600Y-114257000D02*
X103352600Y-111597000D01*
X104242600Y-114654071D02*
X104242600Y-114257000D01*
X105002600Y-114654071D02*
X105002600Y-114257000D01*
X104242600Y-105597000D02*
X104242600Y-111597000D01*
X105002600Y-105597000D02*
X104242600Y-105597000D01*
X105002600Y-111597000D02*
X105002600Y-105597000D01*
X105892600Y-114257000D02*
X105892600Y-111597000D01*
X106782600Y-114654071D02*
X106782600Y-114257000D01*
X107542600Y-114654071D02*
X107542600Y-114257000D01*
X106782600Y-105597000D02*
X106782600Y-111597000D01*
X107542600Y-105597000D02*
X106782600Y-105597000D01*
X107542600Y-111597000D02*
X107542600Y-105597000D01*
X108432600Y-114257000D02*
X108432600Y-111597000D01*
X109322600Y-114654071D02*
X109322600Y-114257000D01*
X110082600Y-114654071D02*
X110082600Y-114257000D01*
X109322600Y-105597000D02*
X109322600Y-111597000D01*
X110082600Y-105597000D02*
X109322600Y-105597000D01*
X110082600Y-111597000D02*
X110082600Y-105597000D01*
X110972600Y-114257000D02*
X110972600Y-111597000D01*
X111862600Y-114654071D02*
X111862600Y-114257000D01*
X112622600Y-114654071D02*
X112622600Y-114257000D01*
X111862600Y-105597000D02*
X111862600Y-111597000D01*
X112622600Y-105597000D02*
X111862600Y-105597000D01*
X112622600Y-111597000D02*
X112622600Y-105597000D01*
X113512600Y-114257000D02*
X113512600Y-111597000D01*
X114402600Y-114587000D02*
X114402600Y-114257000D01*
X115162600Y-114587000D02*
X115162600Y-114257000D01*
X114502600Y-111597000D02*
X114502600Y-105597000D01*
X114622600Y-111597000D02*
X114622600Y-105597000D01*
X114742600Y-111597000D02*
X114742600Y-105597000D01*
X114862600Y-111597000D02*
X114862600Y-105597000D01*
X114982600Y-111597000D02*
X114982600Y-105597000D01*
X115102600Y-111597000D02*
X115102600Y-105597000D01*
X114402600Y-105597000D02*
X114402600Y-111597000D01*
X115162600Y-105597000D02*
X114402600Y-105597000D01*
X115162600Y-111597000D02*
X115162600Y-105597000D01*
X116112600Y-111597000D02*
X116112600Y-114257000D01*
X100752600Y-111597000D02*
X116112600Y-111597000D01*
X100752600Y-114257000D02*
X100752600Y-111597000D01*
X116112600Y-114257000D02*
X100752600Y-114257000D01*
X116517267Y-89410000D02*
X116174733Y-89410000D01*
X116517267Y-88390000D02*
X116174733Y-88390000D01*
X117624600Y-103684000D02*
X110924600Y-103684000D01*
X110924600Y-97484000D02*
X117624600Y-97484000D01*
X110924600Y-99384000D02*
X110924600Y-101784000D01*
X117624600Y-99384000D02*
X117624600Y-101784000D01*
X117624600Y-97484000D02*
X117624600Y-97684000D01*
X117624600Y-103684000D02*
X117624600Y-103484000D01*
X110924600Y-103684000D02*
X110924600Y-103484000D01*
X110924600Y-97484000D02*
X110924600Y-97684000D01*
X118412800Y-105809867D02*
X118412800Y-105467333D01*
X119432800Y-105809867D02*
X119432800Y-105467333D01*
X120067800Y-95064733D02*
X120067800Y-95407267D01*
X119047800Y-95064733D02*
X119047800Y-95407267D01*
X120067800Y-90746733D02*
X120067800Y-91089267D01*
X119047800Y-90746733D02*
X119047800Y-91089267D01*
D11*
X141960504Y-90917780D02*
X141960504Y-91727304D01*
X141912885Y-91822542D01*
X141865266Y-91870161D01*
X141770028Y-91917780D01*
X141579552Y-91917780D01*
X141484314Y-91870161D01*
X141436695Y-91822542D01*
X141389076Y-91727304D01*
X141389076Y-90917780D01*
X140484314Y-90917780D02*
X140674790Y-90917780D01*
X140770028Y-90965400D01*
X140817647Y-91013019D01*
X140912885Y-91155876D01*
X140960504Y-91346352D01*
X140960504Y-91727304D01*
X140912885Y-91822542D01*
X140865266Y-91870161D01*
X140770028Y-91917780D01*
X140579552Y-91917780D01*
X140484314Y-91870161D01*
X140436695Y-91822542D01*
X140389076Y-91727304D01*
X140389076Y-91489209D01*
X140436695Y-91393971D01*
X140484314Y-91346352D01*
X140579552Y-91298733D01*
X140770028Y-91298733D01*
X140865266Y-91346352D01*
X140912885Y-91393971D01*
X140960504Y-91489209D01*
X146019780Y-110778695D02*
X146829304Y-110778695D01*
X146924542Y-110826314D01*
X146972161Y-110873933D01*
X147019780Y-110969171D01*
X147019780Y-111159647D01*
X146972161Y-111254885D01*
X146924542Y-111302504D01*
X146829304Y-111350123D01*
X146019780Y-111350123D01*
X146019780Y-111731076D02*
X146019780Y-112350123D01*
X146400733Y-112016790D01*
X146400733Y-112159647D01*
X146448352Y-112254885D01*
X146495971Y-112302504D01*
X146591209Y-112350123D01*
X146829304Y-112350123D01*
X146924542Y-112302504D01*
X146972161Y-112254885D01*
X147019780Y-112159647D01*
X147019780Y-111873933D01*
X146972161Y-111778695D01*
X146924542Y-111731076D01*
X116504980Y-110550095D02*
X117314504Y-110550095D01*
X117409742Y-110597714D01*
X117457361Y-110645333D01*
X117504980Y-110740571D01*
X117504980Y-110931047D01*
X117457361Y-111026285D01*
X117409742Y-111073904D01*
X117314504Y-111121523D01*
X116504980Y-111121523D01*
X117504980Y-112121523D02*
X117504980Y-111550095D01*
X117504980Y-111835809D02*
X116504980Y-111835809D01*
X116647838Y-111740571D01*
X116743076Y-111645333D01*
X116790695Y-111550095D01*
X113693266Y-89199980D02*
X114026600Y-88723790D01*
X114264695Y-89199980D02*
X114264695Y-88199980D01*
X113883742Y-88199980D01*
X113788504Y-88247600D01*
X113740885Y-88295219D01*
X113693266Y-88390457D01*
X113693266Y-88533314D01*
X113740885Y-88628552D01*
X113788504Y-88676171D01*
X113883742Y-88723790D01*
X114264695Y-88723790D01*
X112836123Y-88533314D02*
X112836123Y-89199980D01*
X113074219Y-88152361D02*
X113312314Y-88866647D01*
X112693266Y-88866647D01*
X110412161Y-99301466D02*
X110459780Y-99444323D01*
X110459780Y-99682419D01*
X110412161Y-99777657D01*
X110364542Y-99825276D01*
X110269304Y-99872895D01*
X110174066Y-99872895D01*
X110078828Y-99825276D01*
X110031209Y-99777657D01*
X109983590Y-99682419D01*
X109935971Y-99491942D01*
X109888352Y-99396704D01*
X109840733Y-99349085D01*
X109745495Y-99301466D01*
X109650257Y-99301466D01*
X109555019Y-99349085D01*
X109507400Y-99396704D01*
X109459780Y-99491942D01*
X109459780Y-99730038D01*
X109507400Y-99872895D01*
X109459780Y-100206228D02*
X110459780Y-100444323D01*
X109745495Y-100634800D01*
X110459780Y-100825276D01*
X109459780Y-101063371D01*
X110459780Y-101968133D02*
X110459780Y-101396704D01*
X110459780Y-101682419D02*
X109459780Y-101682419D01*
X109602638Y-101587180D01*
X109697876Y-101491942D01*
X109745495Y-101396704D01*
X117851180Y-105040133D02*
X117374990Y-104706800D01*
X117851180Y-104468704D02*
X116851180Y-104468704D01*
X116851180Y-104849657D01*
X116898800Y-104944895D01*
X116946419Y-104992514D01*
X117041657Y-105040133D01*
X117184514Y-105040133D01*
X117279752Y-104992514D01*
X117327371Y-104944895D01*
X117374990Y-104849657D01*
X117374990Y-104468704D01*
X116851180Y-105944895D02*
X116851180Y-105468704D01*
X117327371Y-105421085D01*
X117279752Y-105468704D01*
X117232133Y-105563942D01*
X117232133Y-105802038D01*
X117279752Y-105897276D01*
X117327371Y-105944895D01*
X117422609Y-105992514D01*
X117660704Y-105992514D01*
X117755942Y-105944895D01*
X117803561Y-105897276D01*
X117851180Y-105802038D01*
X117851180Y-105563942D01*
X117803561Y-105468704D01*
X117755942Y-105421085D01*
X119940342Y-97863333D02*
X119987961Y-97815714D01*
X120035580Y-97672857D01*
X120035580Y-97577619D01*
X119987961Y-97434761D01*
X119892723Y-97339523D01*
X119797485Y-97291904D01*
X119607009Y-97244285D01*
X119464152Y-97244285D01*
X119273676Y-97291904D01*
X119178438Y-97339523D01*
X119083200Y-97434761D01*
X119035580Y-97577619D01*
X119035580Y-97672857D01*
X119083200Y-97815714D01*
X119130819Y-97863333D01*
X119035580Y-98720476D02*
X119035580Y-98530000D01*
X119083200Y-98434761D01*
X119130819Y-98387142D01*
X119273676Y-98291904D01*
X119464152Y-98244285D01*
X119845104Y-98244285D01*
X119940342Y-98291904D01*
X119987961Y-98339523D01*
X120035580Y-98434761D01*
X120035580Y-98625238D01*
X119987961Y-98720476D01*
X119940342Y-98768095D01*
X119845104Y-98815714D01*
X119607009Y-98815714D01*
X119511771Y-98768095D01*
X119464152Y-98720476D01*
X119416533Y-98625238D01*
X119416533Y-98434761D01*
X119464152Y-98339523D01*
X119511771Y-98291904D01*
X119607009Y-98244285D01*
X121388142Y-90827533D02*
X121435761Y-90779914D01*
X121483380Y-90637057D01*
X121483380Y-90541819D01*
X121435761Y-90398961D01*
X121340523Y-90303723D01*
X121245285Y-90256104D01*
X121054809Y-90208485D01*
X120911952Y-90208485D01*
X120721476Y-90256104D01*
X120626238Y-90303723D01*
X120531000Y-90398961D01*
X120483380Y-90541819D01*
X120483380Y-90637057D01*
X120531000Y-90779914D01*
X120578619Y-90827533D01*
X120578619Y-91208485D02*
X120531000Y-91256104D01*
X120483380Y-91351342D01*
X120483380Y-91589438D01*
X120531000Y-91684676D01*
X120578619Y-91732295D01*
X120673857Y-91779914D01*
X120769095Y-91779914D01*
X120911952Y-91732295D01*
X121483380Y-91160866D01*
X121483380Y-91779914D01*
M02*
